<svg width="34" height="31" viewBox="0 0 34 31" fill="none" xmlns="http://www.w3.org/2000/svg">
<path d="M33.7071 8.70943C34.0976 8.31893 34.0977 7.68577 33.7072 7.29522L27.3436 0.930803C26.9532 0.540251 26.32 0.540206 25.9294 0.930703C25.5389 1.3212 25.5388 1.95436 25.9293 2.34492L31.5858 8.00217L25.9285 13.6586C25.538 14.0491 25.5379 14.6823 25.9284 15.0728C26.3189 15.4634 26.9521 15.4634 27.3426 15.0729L33.7071 8.70943ZM1 8L0.999929 9L32.9999 9.00227L33 8.00227L33.0001 7.00227L1.00007 7L1 8Z" fill="white"/>
<path d="M0.292943 23.7094C-0.0976086 23.3189 -0.0976536 22.6858 0.292843 22.2952L6.65635 15.9308C7.04685 15.5403 7.68001 15.5402 8.07057 15.9307C8.46112 16.3212 8.46116 16.9544 8.07067 17.3449L2.41421 23.0022L8.07147 28.6586C8.46202 29.0491 8.46207 29.6823 8.07157 30.0728C7.68107 30.4634 7.04791 30.4634 6.65736 30.0729L0.292943 23.7094ZM33 23L33.0001 24L1.00007 24.0023L1 23.0023L0.999929 22.0023L32.9999 22L33 23Z" fill="white"/>
</svg>
