<svg width="1440" height="720" viewBox="0 0 1440 720" fill="none" xmlns="http://www.w3.org/2000/svg">
<g clip-path="url(#clip0_30_13)">
<rect width="1440" height="720" fill="white"/>
<g clip-path="url(#clip1_30_13)">
<rect width="1440" height="768" fill="#E76F51"/>
<path d="M665.867 767C665.867 767 859.745 601.008 838.351 468C816.072 329.491 566.508 377.71 562.076 237.5C558.477 123.609 732.053 0 732.053 0H0V767H665.867Z" fill="#264653" stroke="#264653"/>
<path opacity="0.4" d="M1380.91 679.812V691.094C1380.91 691.635 1380.74 692.104 1380.41 692.5C1380.05 692.875 1379.62 693.062 1379.12 693.062H1375.84C1375.36 693.062 1374.96 692.875 1374.62 692.5C1374.27 692.104 1374.09 691.635 1374.09 691.094V660.219C1374.09 659.677 1374.27 659.271 1374.62 659C1374.96 658.708 1375.38 658.562 1375.88 658.562H1379.16C1379.64 658.562 1380.05 658.708 1380.41 659C1380.74 659.292 1380.91 659.708 1380.91 660.25V671.938H1420C1420.54 671.938 1421.01 672.115 1421.41 672.469C1421.8 672.802 1422 673.208 1422 673.688V678.094C1422 678.573 1421.8 678.979 1421.41 679.312C1421.01 679.646 1420.54 679.812 1420 679.812H1380.91ZM1376.09 650.125C1375.55 650.125 1375.08 649.958 1374.69 649.625C1374.29 649.271 1374.09 648.854 1374.09 648.375V644C1374.09 643.521 1374.29 643.115 1374.69 642.781C1375.08 642.448 1375.55 642.281 1376.09 642.281H1394.78V619H1376.09C1375.55 619 1375.08 618.833 1374.69 618.5C1374.29 618.146 1374.09 617.729 1374.09 617.25V612.875C1374.09 612.396 1374.29 611.99 1374.69 611.656C1375.08 611.323 1375.55 611.156 1376.09 611.156H1419.97C1420.51 611.156 1420.98 611.333 1421.38 611.688C1421.77 612.021 1421.97 612.427 1421.97 612.906V617.281C1421.97 617.76 1421.77 618.167 1421.38 618.5C1420.98 618.833 1420.51 619 1419.97 619H1401.69V642.281H1420C1420.54 642.281 1421.01 642.458 1421.41 642.812C1421.8 643.146 1422 643.552 1422 644.031V648.406C1422 648.885 1421.8 649.292 1421.41 649.625C1421.01 649.958 1420.54 650.125 1420 650.125H1376.09ZM1376.09 597.312C1375.55 597.312 1375.08 597.146 1374.69 596.812C1374.29 596.458 1374.09 596.042 1374.09 595.562V591.188C1374.09 590.708 1374.29 590.302 1374.69 589.969C1375.08 589.635 1375.55 589.469 1376.09 589.469H1420C1420.54 589.469 1421.01 589.646 1421.41 590C1421.8 590.333 1422 590.74 1422 591.219V595.594C1422 596.073 1421.8 596.479 1421.41 596.812C1421.01 597.146 1420.54 597.312 1420 597.312H1376.09ZM1417.09 579.25C1416.34 579.25 1415.46 578.948 1414.44 578.344C1413.42 577.74 1412.79 577.333 1412.56 577.125C1412.06 576.708 1411.81 576.292 1411.81 575.875C1411.81 575.438 1411.95 574.979 1412.22 574.5C1412.49 574.021 1412.83 573.385 1413.25 572.594C1413.65 571.781 1414.02 570.917 1414.38 570C1415.15 567.958 1415.53 566.177 1415.53 564.656C1415.53 563.115 1415.4 561.865 1415.12 560.906C1414.85 559.948 1414.45 559.125 1413.91 558.438C1412.76 557.021 1411.16 556.312 1409.09 556.312C1406.49 556.312 1404.27 558.281 1402.44 562.219C1401.92 563.344 1401.4 564.615 1400.88 566.031C1400.33 567.427 1399.61 568.906 1398.72 570.469C1397.82 572.01 1396.77 573.396 1395.56 574.625C1392.85 577.354 1389.67 578.719 1386 578.719C1382.1 578.719 1378.98 577.125 1376.62 573.938C1374.42 570.958 1373.31 567.448 1373.31 563.406C1373.31 558.906 1374.29 555.208 1376.25 552.312C1377.29 550.729 1378.26 549.938 1379.16 549.938C1379.64 549.938 1380.41 550.219 1381.47 550.781C1382.53 551.344 1383.25 551.802 1383.62 552.156C1384 552.49 1384.19 552.802 1384.19 553.094C1384.19 553.615 1383.91 554.302 1383.34 555.156C1382.78 555.99 1382.17 557.188 1381.5 558.75C1380.83 560.312 1380.5 561.792 1380.5 563.188C1380.5 564.583 1380.61 565.708 1380.84 566.562C1381.07 567.396 1381.42 568.125 1381.88 568.75C1382.85 570.042 1384.28 570.688 1386.16 570.688C1388.86 570.688 1391.01 568.833 1392.59 565.125L1393.84 562.094C1395.41 558.031 1397.14 554.948 1399.03 552.844C1401.66 549.948 1404.88 548.5 1408.69 548.5C1412.94 548.5 1416.4 550.104 1419.06 553.312C1421.54 556.271 1422.78 559.74 1422.78 563.719C1422.78 568.823 1421.73 573.167 1419.62 576.75C1418.67 578.417 1417.82 579.25 1417.09 579.25ZM1376.09 522.562C1375.55 522.562 1375.08 522.396 1374.69 522.062C1374.29 521.708 1374.09 521.292 1374.09 520.812V516.438C1374.09 515.958 1374.29 515.552 1374.69 515.219C1375.08 514.885 1375.55 514.719 1376.09 514.719H1420C1420.54 514.719 1421.01 514.896 1421.41 515.25C1421.8 515.583 1422 515.99 1422 516.469V520.844C1422 521.323 1421.8 521.729 1421.41 522.062C1421.01 522.396 1420.54 522.562 1420 522.562H1376.09ZM1417.09 504.5C1416.34 504.5 1415.46 504.198 1414.44 503.594C1413.42 502.99 1412.79 502.583 1412.56 502.375C1412.06 501.958 1411.81 501.542 1411.81 501.125C1411.81 500.688 1411.95 500.229 1412.22 499.75C1412.49 499.271 1412.83 498.635 1413.25 497.844C1413.65 497.031 1414.02 496.167 1414.38 495.25C1415.15 493.208 1415.53 491.427 1415.53 489.906C1415.53 488.365 1415.4 487.115 1415.12 486.156C1414.85 485.198 1414.45 484.375 1413.91 483.688C1412.76 482.271 1411.16 481.562 1409.09 481.562C1406.49 481.562 1404.27 483.531 1402.44 487.469C1401.92 488.594 1401.4 489.865 1400.88 491.281C1400.33 492.677 1399.61 494.156 1398.72 495.719C1397.82 497.26 1396.77 498.646 1395.56 499.875C1392.85 502.604 1389.67 503.969 1386 503.969C1382.1 503.969 1378.98 502.375 1376.62 499.188C1374.42 496.208 1373.31 492.698 1373.31 488.656C1373.31 484.156 1374.29 480.458 1376.25 477.562C1377.29 475.979 1378.26 475.188 1379.16 475.188C1379.64 475.188 1380.41 475.469 1381.47 476.031C1382.53 476.594 1383.25 477.052 1383.62 477.406C1384 477.74 1384.19 478.052 1384.19 478.344C1384.19 478.865 1383.91 479.552 1383.34 480.406C1382.78 481.24 1382.17 482.438 1381.5 484C1380.83 485.562 1380.5 487.042 1380.5 488.438C1380.5 489.833 1380.61 490.958 1380.84 491.812C1381.07 492.646 1381.42 493.375 1381.88 494C1382.85 495.292 1384.28 495.938 1386.16 495.938C1388.86 495.938 1391.01 494.083 1392.59 490.375L1393.84 487.344C1395.41 483.281 1397.14 480.198 1399.03 478.094C1401.66 475.198 1404.88 473.75 1408.69 473.75C1412.94 473.75 1416.4 475.354 1419.06 478.562C1421.54 481.521 1422.78 484.99 1422.78 488.969C1422.78 494.073 1421.73 498.417 1419.62 502C1418.67 503.667 1417.82 504.5 1417.09 504.5ZM1422 450.594C1422 451.198 1421.81 451.656 1421.44 451.969C1421.04 452.281 1420.71 452.438 1420.44 452.438C1420.15 452.438 1419.92 452.406 1419.75 452.344L1377.31 436.562C1375.46 435.854 1374.42 434.719 1374.19 433.156C1374.12 432.615 1374.09 431.969 1374.09 431.219V430.688C1374.09 429.271 1374.27 428.292 1374.62 427.75C1375.17 426.875 1376.03 426.198 1377.22 425.719L1419.78 408.75C1419.95 408.688 1420.19 408.656 1420.5 408.656C1420.79 408.656 1421.11 408.781 1421.47 409.031C1421.82 409.281 1422 409.698 1422 410.281V414.656C1422 415.615 1421.55 416.281 1420.66 416.656L1410.5 420.531V441.062L1420.66 444.656C1421.55 444.948 1422 445.583 1422 446.562V450.594ZM1403.75 423.156L1383.44 430.625C1383.23 430.688 1383.12 430.812 1383.12 431C1383.12 431.188 1383.23 431.312 1383.44 431.375L1403.75 438.625V423.156ZM1380.91 375.875V387.156C1380.91 387.698 1380.74 388.167 1380.41 388.562C1380.05 388.938 1379.62 389.125 1379.12 389.125H1375.84C1375.36 389.125 1374.96 388.938 1374.62 388.562C1374.27 388.167 1374.09 387.698 1374.09 387.156V356.281C1374.09 355.74 1374.27 355.333 1374.62 355.062C1374.96 354.771 1375.38 354.625 1375.88 354.625H1379.16C1379.64 354.625 1380.05 354.771 1380.41 355.062C1380.74 355.354 1380.91 355.771 1380.91 356.312V368H1420C1420.54 368 1421.01 368.177 1421.41 368.531C1421.8 368.865 1422 369.271 1422 369.75V374.156C1422 374.635 1421.8 375.042 1421.41 375.375C1421.01 375.708 1420.54 375.875 1420 375.875H1380.91ZM1376.09 345.938C1375.55 345.938 1375.08 345.771 1374.69 345.438C1374.29 345.083 1374.09 344.667 1374.09 344.188V316.719C1374.09 316.177 1374.27 315.771 1374.62 315.5C1374.96 315.208 1375.38 315.062 1375.88 315.062H1379.25C1379.73 315.062 1380.15 315.208 1380.5 315.5C1380.83 315.771 1381 316.177 1381 316.719V338.094H1394.69V321.094C1394.69 320.552 1394.86 320.146 1395.22 319.875C1395.55 319.583 1395.97 319.438 1396.47 319.438H1399.84C1400.32 319.438 1400.74 319.583 1401.09 319.875C1401.43 320.146 1401.59 320.552 1401.59 321.094V338.094H1415.09V316.562C1415.09 316.021 1415.27 315.615 1415.62 315.344C1415.96 315.052 1416.38 314.906 1416.88 314.906H1420.25C1420.73 314.906 1421.15 315.052 1421.5 315.344C1421.83 315.615 1422 316.021 1422 316.562V344.219C1422 344.698 1421.8 345.104 1421.41 345.438C1421.01 345.771 1420.54 345.938 1420 345.938H1376.09ZM1422 306.656C1422 307.115 1421.85 307.469 1421.56 307.719C1421.27 307.969 1420.91 308.094 1420.47 308.094C1420.03 308.094 1419.6 307.958 1419.19 307.688L1397.59 294.219L1376.91 308.25C1376.49 308.542 1376.07 308.688 1375.66 308.688C1375.22 308.688 1374.85 308.562 1374.56 308.312C1374.25 308.042 1374.09 307.677 1374.09 307.219V302.438C1374.09 301.688 1374.26 301.156 1374.59 300.844C1374.93 300.51 1375.26 300.24 1375.59 300.031L1391.91 289.812L1375.59 280.156C1374.59 279.656 1374.09 278.875 1374.09 277.812V273.156C1374.09 272.698 1374.24 272.344 1374.53 272.094C1374.82 271.823 1375.19 271.688 1375.62 271.688C1376.04 271.688 1376.45 271.812 1376.84 272.062L1397.41 285.219L1419.19 270.344C1419.6 270.073 1420.03 269.938 1420.47 269.938C1420.89 269.938 1421.25 270.062 1421.56 270.312C1421.85 270.562 1422 270.917 1422 271.375V276.219C1422 276.927 1421.83 277.448 1421.5 277.781C1421.17 278.094 1420.83 278.354 1420.5 278.562L1403.44 289.625L1420.5 299.938C1420.83 300.146 1421.17 300.417 1421.5 300.75C1421.83 301.062 1422 301.594 1422 302.344V306.656ZM1380.91 253.438V264.719C1380.91 265.26 1380.74 265.729 1380.41 266.125C1380.05 266.5 1379.62 266.688 1379.12 266.688H1375.84C1375.36 266.688 1374.96 266.5 1374.62 266.125C1374.27 265.729 1374.09 265.26 1374.09 264.719V233.844C1374.09 233.302 1374.27 232.896 1374.62 232.625C1374.96 232.333 1375.38 232.188 1375.88 232.188H1379.16C1379.64 232.188 1380.05 232.333 1380.41 232.625C1380.74 232.917 1380.91 233.333 1380.91 233.875V245.562H1420C1420.54 245.562 1421.01 245.74 1421.41 246.094C1421.8 246.427 1422 246.833 1422 247.312V251.719C1422 252.198 1421.8 252.604 1421.41 252.938C1421.01 253.271 1420.54 253.438 1420 253.438H1380.91ZM1376.09 207.688C1375.55 207.688 1375.08 207.521 1374.69 207.188C1374.29 206.833 1374.09 206.417 1374.09 205.938V201.562C1374.09 201.083 1374.29 200.677 1374.69 200.344C1375.08 200.01 1375.55 199.844 1376.09 199.844H1394.78V176.562H1376.09C1375.55 176.562 1375.08 176.396 1374.69 176.062C1374.29 175.708 1374.09 175.292 1374.09 174.812V170.438C1374.09 169.958 1374.29 169.552 1374.69 169.219C1375.08 168.885 1375.55 168.719 1376.09 168.719H1419.97C1420.51 168.719 1420.98 168.896 1421.38 169.25C1421.77 169.583 1421.97 169.99 1421.97 170.469V174.844C1421.97 175.323 1421.77 175.729 1421.38 176.062C1420.98 176.396 1420.51 176.562 1419.97 176.562H1401.69V199.844H1420C1420.54 199.844 1421.01 200.021 1421.41 200.375C1421.8 200.708 1422 201.115 1422 201.594V205.969C1422 206.448 1421.8 206.854 1421.41 207.188C1421.01 207.521 1420.54 207.688 1420 207.688H1376.09ZM1376.09 154.312C1375.55 154.312 1375.08 154.146 1374.69 153.812C1374.29 153.458 1374.09 153.042 1374.09 152.562V125.094C1374.09 124.552 1374.27 124.146 1374.62 123.875C1374.96 123.583 1375.38 123.438 1375.88 123.438H1379.25C1379.73 123.438 1380.15 123.583 1380.5 123.875C1380.83 124.146 1381 124.552 1381 125.094V146.469H1394.69V129.469C1394.69 128.927 1394.86 128.521 1395.22 128.25C1395.55 127.958 1395.97 127.812 1396.47 127.812H1399.84C1400.32 127.812 1400.74 127.958 1401.09 128.25C1401.43 128.521 1401.59 128.927 1401.59 129.469V146.469H1415.09V124.938C1415.09 124.396 1415.27 123.99 1415.62 123.719C1415.96 123.427 1416.38 123.281 1416.88 123.281H1420.25C1420.73 123.281 1421.15 123.427 1421.5 123.719C1421.83 123.99 1422 124.396 1422 124.938V152.594C1422 153.073 1421.8 153.479 1421.41 153.812C1421.01 154.146 1420.54 154.312 1420 154.312H1376.09ZM1415.28 79.7188L1414.84 76.5C1414.84 75.9167 1415.04 75.5104 1415.44 75.2812C1415.83 75.0312 1416.26 74.8542 1416.72 74.75C1417.16 74.625 1417.55 74.5104 1417.91 74.4062C1418.26 74.3021 1418.65 74.25 1419.06 74.25C1419.48 74.25 1419.91 74.4583 1420.34 74.875C1420.76 75.2708 1421.14 75.7812 1421.47 76.4062C1422.18 77.7396 1422.53 79.1354 1422.53 80.5938C1422.53 82.0312 1422.36 83.3333 1422.03 84.5C1421.7 85.6667 1421.24 86.7708 1420.66 87.8125C1419.74 89.4375 1418.45 91.1042 1416.78 92.8125C1415.11 94.5 1413.69 95.8438 1412.5 96.8438L1406.12 102C1405.25 102.729 1404.54 103.385 1404 103.969H1420.03C1420.86 103.969 1421.46 104.25 1421.81 104.812C1421.94 105.021 1422 105.26 1422 105.531V110C1422 110.562 1421.83 110.958 1421.5 111.188C1420.96 111.562 1420.47 111.75 1420.03 111.75H1376.84C1376.11 111.75 1375.48 111.562 1374.94 111.188C1374.38 110.792 1374.09 110.156 1374.09 109.281V95.3438C1374.09 82.9479 1378.99 76.75 1388.78 76.75C1393.28 76.75 1397.06 78.4167 1400.12 81.75C1403.02 84.8958 1404.47 88.6042 1404.47 92.875C1404.47 93.625 1404.42 94.3438 1404.31 95.0312L1408.38 91.1875C1410.69 88.9792 1412.25 87.2604 1413.06 86.0312C1414.54 83.8229 1415.28 81.7188 1415.28 79.7188ZM1398.03 103.969C1398.57 101.615 1398.84 99.4896 1398.84 97.5938C1398.84 95.6771 1398.67 93.9688 1398.31 92.4688C1397.96 90.9688 1397.4 89.6354 1396.62 88.4688C1394.96 85.8854 1392.49 84.5938 1389.22 84.5938C1386.28 84.5938 1384.1 85.7083 1382.69 87.9375C1381.5 89.8125 1380.91 92.3542 1380.91 95.5625V103.969H1398.03ZM1376.09 63.8125C1375.55 63.8125 1375.08 63.6458 1374.69 63.3125C1374.29 62.9583 1374.09 62.5417 1374.09 62.0625V34.5938C1374.09 34.0521 1374.27 33.6458 1374.62 33.375C1374.96 33.0833 1375.38 32.9375 1375.88 32.9375H1379.25C1379.73 32.9375 1380.15 33.0833 1380.5 33.375C1380.83 33.6458 1381 34.0521 1381 34.5938V55.9688H1394.69V38.9688C1394.69 38.4271 1394.86 38.0208 1395.22 37.75C1395.55 37.4583 1395.97 37.3125 1396.47 37.3125H1399.84C1400.32 37.3125 1400.74 37.4583 1401.09 37.75C1401.43 38.0208 1401.59 38.4271 1401.59 38.9688V55.9688H1415.09V34.4375C1415.09 33.8958 1415.27 33.4896 1415.62 33.2188C1415.96 32.9271 1416.38 32.7812 1416.88 32.7812H1420.25C1420.73 32.7812 1421.15 32.9271 1421.5 33.2188C1421.83 33.4896 1422 33.8958 1422 34.4375V62.0938C1422 62.5729 1421.8 62.9792 1421.41 63.3125C1421.01 63.6458 1420.54 63.8125 1420 63.8125H1376.09Z" fill="#2A9D8F"/>
</g>
</g>
<defs>
<clipPath id="clip0_30_13">
<rect width="1440" height="720" fill="white"/>
</clipPath>
<clipPath id="clip1_30_13">
<rect width="1440" height="768" fill="white"/>
</clipPath>
</defs>
</svg>
