<svg width="1384" height="98" viewBox="0 0 1384 98" fill="none" xmlns="http://www.w3.org/2000/svg">
<g clip-path="url(#clip0_116_1748)">
<rect width="1384" height="98" fill="url(#paint0_linear_116_1748)" style="mix-blend-mode:darken"/>
<circle opacity="0.85" cx="631" cy="49" r="49" fill="#E76F51"/>
<path d="M184.558 32.116H188.59L195.646 51.988L195.034 51.736L200.182 38.416L201.802 43.132L194.926 59.188L184.558 32.116ZM197.05 32.116H200.542L208.174 51.7L207.454 51.556L214.186 32.116H217.894L207.67 59.152L197.05 32.116ZM245.499 31.972V58H242.043V46.588H228.399V58H224.907V31.972H228.399V43.276H242.043V31.972H245.499ZM252.205 58L263.581 30.892H263.797L275.137 58H271.141L262.645 36.364L265.129 34.744L255.625 58H252.205ZM258.865 48.136H268.549L269.701 51.16H257.857L258.865 48.136ZM277.892 31.972H295.172V35.32H288.188V58H284.696V35.32H277.892V31.972ZM314.089 45.004C314.089 43.204 314.425 41.512 315.097 39.928C315.793 38.32 316.753 36.904 317.977 35.68C319.201 34.432 320.605 33.46 322.189 32.764C323.797 32.044 325.525 31.684 327.373 31.684C329.197 31.684 330.901 32.044 332.485 32.764C334.093 33.46 335.509 34.432 336.733 35.68C337.981 36.904 338.953 38.32 339.649 39.928C340.345 41.512 340.693 43.204 340.693 45.004C340.693 46.852 340.345 48.58 339.649 50.188C338.953 51.796 337.981 53.212 336.733 54.436C335.509 55.636 334.093 56.584 332.485 57.28C330.901 57.952 329.197 58.288 327.373 58.288C325.525 58.288 323.797 57.952 322.189 57.28C320.605 56.608 319.201 55.672 317.977 54.472C316.753 53.272 315.793 51.868 315.097 50.26C314.425 48.652 314.089 46.9 314.089 45.004ZM317.689 45.04C317.689 46.408 317.941 47.692 318.445 48.892C318.949 50.068 319.645 51.112 320.533 52.024C321.421 52.936 322.453 53.656 323.629 54.184C324.805 54.688 326.077 54.94 327.445 54.94C328.789 54.94 330.049 54.688 331.225 54.184C332.401 53.656 333.421 52.936 334.285 52.024C335.149 51.112 335.833 50.068 336.337 48.892C336.841 47.692 337.093 46.396 337.093 45.004C337.093 43.636 336.841 42.352 336.337 41.152C335.833 39.928 335.137 38.86 334.249 37.948C333.361 37.036 332.329 36.328 331.153 35.824C329.977 35.296 328.717 35.032 327.373 35.032C326.005 35.032 324.733 35.296 323.557 35.824C322.381 36.352 321.349 37.072 320.461 37.984C319.573 38.896 318.889 39.964 318.409 41.188C317.929 42.388 317.689 43.672 317.689 45.04ZM345.378 31.972H362.658V35.32H355.674V58H352.182V35.32H345.378V31.972ZM390.596 31.972V58H387.14V46.588H373.496V58H370.004V31.972H373.496V43.276H387.14V31.972H390.596ZM399.894 31.972H416.814V35.32H403.386V43.24H415.374V46.588H403.386V54.652H417.318V58H399.894V31.972ZM432.09 31.972C433.41 31.972 434.622 32.152 435.726 32.512C436.854 32.848 437.826 33.364 438.642 34.06C439.482 34.732 440.13 35.572 440.586 36.58C441.066 37.564 441.306 38.716 441.306 40.036C441.306 41.068 441.15 42.076 440.838 43.06C440.55 44.044 440.058 44.944 439.362 45.76C438.666 46.552 437.754 47.2 436.626 47.704C435.522 48.184 434.154 48.424 432.522 48.424H428.67V58H425.178V31.972H432.09ZM432.45 45.076C433.482 45.076 434.334 44.92 435.006 44.608C435.702 44.296 436.242 43.9 436.626 43.42C437.01 42.916 437.286 42.376 437.454 41.8C437.622 41.224 437.706 40.684 437.706 40.18C437.706 39.652 437.61 39.112 437.418 38.56C437.25 37.984 436.962 37.456 436.554 36.976C436.17 36.496 435.654 36.1 435.006 35.788C434.382 35.476 433.614 35.32 432.702 35.32H428.67V45.076H432.45ZM436.734 47.056L443.538 58H439.506L432.594 47.164L436.734 47.056ZM464.173 36.616C463.285 36.16 462.313 35.764 461.257 35.428C460.201 35.092 459.169 34.924 458.161 34.924C456.769 34.924 455.653 35.248 454.813 35.896C453.997 36.544 453.589 37.408 453.589 38.488C453.589 39.304 453.853 40 454.381 40.576C454.909 41.128 455.605 41.608 456.469 42.016C457.333 42.424 458.233 42.808 459.169 43.168C459.985 43.48 460.789 43.828 461.581 44.212C462.373 44.596 463.081 45.076 463.705 45.652C464.353 46.228 464.857 46.936 465.217 47.776C465.601 48.616 465.793 49.66 465.793 50.908C465.793 52.276 465.445 53.524 464.749 54.652C464.077 55.78 463.105 56.668 461.833 57.316C460.561 57.964 459.049 58.288 457.297 58.288C456.145 58.288 455.041 58.156 453.985 57.892C452.953 57.628 451.993 57.292 451.105 56.884C450.217 56.452 449.425 56.008 448.729 55.552L450.277 52.816C450.853 53.224 451.513 53.62 452.257 54.004C453.001 54.364 453.781 54.664 454.597 54.904C455.413 55.12 456.205 55.228 456.973 55.228C457.789 55.228 458.593 55.084 459.385 54.796C460.201 54.484 460.873 54.016 461.401 53.392C461.929 52.768 462.193 51.94 462.193 50.908C462.193 50.02 461.953 49.288 461.473 48.712C461.017 48.112 460.405 47.608 459.637 47.2C458.869 46.768 458.053 46.384 457.189 46.048C456.373 45.736 455.545 45.4 454.705 45.04C453.865 44.656 453.085 44.2 452.365 43.672C451.645 43.12 451.069 42.448 450.637 41.656C450.205 40.864 449.989 39.904 449.989 38.776C449.989 37.408 450.313 36.22 450.961 35.212C451.633 34.18 452.545 33.376 453.697 32.8C454.849 32.2 456.169 31.876 457.657 31.828C459.337 31.828 460.813 32.032 462.085 32.44C463.381 32.848 464.521 33.352 465.505 33.952L464.173 36.616Z" fill="white"/>
<path d="M913.522 58L924.898 30.892H925.114L936.454 58H932.458L923.962 36.364L926.446 34.744L916.942 58H913.522ZM920.182 48.136H929.866L931.018 51.16H919.174L920.182 48.136ZM950.068 31.972C951.388 31.972 952.6 32.152 953.704 32.512C954.832 32.848 955.804 33.364 956.62 34.06C957.46 34.732 958.108 35.572 958.564 36.58C959.044 37.564 959.284 38.716 959.284 40.036C959.284 41.068 959.128 42.076 958.816 43.06C958.528 44.044 958.036 44.944 957.34 45.76C956.644 46.552 955.732 47.2 954.604 47.704C953.5 48.184 952.132 48.424 950.5 48.424H946.648V58H943.156V31.972H950.068ZM950.428 45.076C951.46 45.076 952.312 44.92 952.984 44.608C953.68 44.296 954.22 43.9 954.604 43.42C954.988 42.916 955.264 42.376 955.432 41.8C955.6 41.224 955.684 40.684 955.684 40.18C955.684 39.652 955.588 39.112 955.396 38.56C955.228 37.984 954.94 37.456 954.532 36.976C954.148 36.496 953.632 36.1 952.984 35.788C952.36 35.476 951.592 35.32 950.68 35.32H946.648V45.076H950.428ZM954.712 47.056L961.516 58H957.484L950.572 47.164L954.712 47.056ZM968.686 31.972H985.606V35.32H972.178V43.24H984.166V46.588H972.178V54.652H986.11V58H968.686V31.972ZM1005.54 45.004C1005.54 43.204 1005.88 41.512 1006.55 39.928C1007.25 38.32 1008.21 36.904 1009.43 35.68C1010.65 34.432 1012.06 33.46 1013.64 32.764C1015.25 32.044 1016.98 31.684 1018.83 31.684C1020.65 31.684 1022.35 32.044 1023.94 32.764C1025.55 33.46 1026.96 34.432 1028.19 35.68C1029.43 36.904 1030.41 38.32 1031.1 39.928C1031.8 41.512 1032.15 43.204 1032.15 45.004C1032.15 46.852 1031.8 48.58 1031.1 50.188C1030.41 51.796 1029.43 53.212 1028.19 54.436C1026.96 55.636 1025.55 56.584 1023.94 57.28C1022.35 57.952 1020.65 58.288 1018.83 58.288C1016.98 58.288 1015.25 57.952 1013.64 57.28C1012.06 56.608 1010.65 55.672 1009.43 54.472C1008.21 53.272 1007.25 51.868 1006.55 50.26C1005.88 48.652 1005.54 46.9 1005.54 45.004ZM1009.14 45.04C1009.14 46.408 1009.39 47.692 1009.9 48.892C1010.4 50.068 1011.1 51.112 1011.99 52.024C1012.87 52.936 1013.91 53.656 1015.08 54.184C1016.26 54.688 1017.53 54.94 1018.9 54.94C1020.24 54.94 1021.5 54.688 1022.68 54.184C1023.85 53.656 1024.87 52.936 1025.74 52.024C1026.6 51.112 1027.29 50.068 1027.79 48.892C1028.29 47.692 1028.55 46.396 1028.55 45.004C1028.55 43.636 1028.29 42.352 1027.79 41.152C1027.29 39.928 1026.59 38.86 1025.7 37.948C1024.81 37.036 1023.78 36.328 1022.61 35.824C1021.43 35.296 1020.17 35.032 1018.83 35.032C1017.46 35.032 1016.19 35.296 1015.01 35.824C1013.83 36.352 1012.8 37.072 1011.91 37.984C1011.03 38.896 1010.34 39.964 1009.86 41.188C1009.38 42.388 1009.14 43.672 1009.14 45.04ZM1039.83 31.972H1055.27V35.32H1043.32V43.636H1053.8V46.948H1043.32V58H1039.83V31.972ZM1062.83 31.972H1078.27V35.32H1066.32V43.636H1076.8V46.948H1066.32V58H1062.83V31.972ZM1085.83 31.972H1102.75V35.32H1089.32V43.24H1101.31V46.588H1089.32V54.652H1103.25V58H1085.83V31.972ZM1118.02 31.972C1119.34 31.972 1120.56 32.152 1121.66 32.512C1122.79 32.848 1123.76 33.364 1124.58 34.06C1125.42 34.732 1126.06 35.572 1126.52 36.58C1127 37.564 1127.24 38.716 1127.24 40.036C1127.24 41.068 1127.08 42.076 1126.77 43.06C1126.48 44.044 1125.99 44.944 1125.3 45.76C1124.6 46.552 1123.69 47.2 1122.56 47.704C1121.46 48.184 1120.09 48.424 1118.46 48.424H1114.6V58H1111.11V31.972H1118.02ZM1118.38 45.076C1119.42 45.076 1120.27 44.92 1120.94 44.608C1121.64 44.296 1122.18 43.9 1122.56 43.42C1122.94 42.916 1123.22 42.376 1123.39 41.8C1123.56 41.224 1123.64 40.684 1123.64 40.18C1123.64 39.652 1123.54 39.112 1123.35 38.56C1123.18 37.984 1122.9 37.456 1122.49 36.976C1122.1 36.496 1121.59 36.1 1120.94 35.788C1120.32 35.476 1119.55 35.32 1118.64 35.32H1114.6V45.076H1118.38ZM1122.67 47.056L1129.47 58H1125.44L1118.53 47.164L1122.67 47.056ZM1136.64 31.972H1140.13V58H1136.64V31.972ZM1171.95 58.828L1151.82 38.416L1152.83 38.668L1152.9 58H1149.41V31.18H1149.59L1169.5 51.664L1168.67 51.484L1168.6 31.972H1172.05V58.828H1171.95ZM1201.72 55.768C1201.36 56.08 1200.85 56.392 1200.2 56.704C1199.56 56.992 1198.84 57.256 1198.04 57.496C1197.28 57.736 1196.47 57.928 1195.63 58.072C1194.82 58.216 1194.05 58.288 1193.33 58.288C1191.24 58.288 1189.36 57.964 1187.68 57.316C1186.02 56.668 1184.59 55.768 1183.39 54.616C1182.22 53.464 1181.3 52.108 1180.66 50.548C1180.03 48.988 1179.72 47.296 1179.72 45.472C1179.72 43.312 1180.07 41.38 1180.76 39.676C1181.48 37.948 1182.46 36.496 1183.68 35.32C1184.93 34.12 1186.36 33.22 1187.96 32.62C1189.57 31.996 1191.28 31.684 1193.08 31.684C1194.59 31.684 1195.99 31.864 1197.29 32.224C1198.58 32.584 1199.72 33.04 1200.71 33.592L1199.52 36.796C1199.04 36.508 1198.44 36.244 1197.72 36.004C1197.02 35.764 1196.3 35.572 1195.56 35.428C1194.82 35.26 1194.12 35.176 1193.47 35.176C1191.94 35.176 1190.54 35.416 1189.3 35.896C1188.05 36.352 1186.98 37.024 1186.09 37.912C1185.2 38.776 1184.52 39.832 1184.04 41.08C1183.56 42.304 1183.32 43.684 1183.32 45.22C1183.32 46.636 1183.56 47.932 1184.04 49.108C1184.52 50.284 1185.2 51.304 1186.09 52.168C1186.98 53.008 1188.04 53.668 1189.26 54.148C1190.51 54.604 1191.88 54.832 1193.36 54.832C1194.25 54.832 1195.13 54.748 1195.99 54.58C1196.86 54.388 1197.6 54.124 1198.22 53.788V48.604H1193.04V45.256H1201.72V55.768Z" fill="white"/>
<circle opacity="0.85" cx="753" cy="49" r="49" fill="#264653"/>
</g>
<defs>
<linearGradient id="paint0_linear_116_1748" x1="327.611" y1="49" x2="1056.39" y2="49" gradientUnits="userSpaceOnUse">
<stop offset="0.5" stop-color="#264653"/>
<stop offset="0.5" stop-color="#E76F51"/>
</linearGradient>
<clipPath id="clip0_116_1748">
<rect width="1384" height="98" fill="white"/>
</clipPath>
</defs>
</svg>
