<svg width="28" height="31" viewBox="0 0 28 31" fill="none" xmlns="http://www.w3.org/2000/svg">
<path d="M1 6.75C0.447715 6.75 0 7.19772 0 7.75C0 8.30228 0.447715 8.75 1 8.75V6.75ZM27.7071 8.45711C28.0976 8.06658 28.0976 7.43342 27.7071 7.04289L21.3431 0.678932C20.9526 0.288408 20.3195 0.288408 19.9289 0.678932C19.5384 1.06946 19.5384 1.70262 19.9289 2.09315L25.5858 7.75L19.9289 13.4069C19.5384 13.7974 19.5384 14.4305 19.9289 14.8211C20.3195 15.2116 20.9526 15.2116 21.3431 14.8211L27.7071 8.45711ZM1 7.75V8.75H27V7.75V6.75H1V7.75Z" fill="#264653"/>
<path d="M27 24.25C27.5523 24.25 28 23.8023 28 23.25C28 22.6977 27.5523 22.25 27 22.25V24.25ZM0.292893 22.5429C-0.0976311 22.9334 -0.0976311 23.5666 0.292893 23.9571L6.65685 30.3211C7.04738 30.7116 7.68054 30.7116 8.07107 30.3211C8.46159 29.9305 8.46159 29.2974 8.07107 28.9069L2.41421 23.25L8.07107 17.5931C8.46159 17.2026 8.46159 16.5695 8.07107 16.1789C7.68054 15.7884 7.04738 15.7884 6.65685 16.1789L0.292893 22.5429ZM27 23.25V22.25L1 22.25V23.25V24.25L27 24.25V23.25Z" fill="#E76F51"/>
</svg>
