<svg width="68" height="134" viewBox="0 0 68 134" fill="none" xmlns="http://www.w3.org/2000/svg">
<path d="M-2.45332e-06 122.3C-2.50027e-06 123.358 -2.52374e-06 123.887 0.10922 124.62C0.77347 129.078 5.71113 133.242 10.2167 133.144C10.9575 133.128 11.1864 133.089 11.6441 133.01C16.5642 132.168 21.3868 130.792 26.0225 128.9C34.2726 125.533 41.7689 120.598 48.0833 114.376C54.3976 108.155 59.4065 100.769 62.8238 92.6398C66.2411 84.511 68 75.7986 68 67C68 58.2014 66.2411 49.489 62.8238 41.3602C59.4065 33.2314 54.3976 25.8454 48.0833 19.6238C41.7689 13.4023 34.2726 8.46714 26.0225 5.10007C21.3868 3.20816 16.5642 1.83215 11.6441 0.989591C11.1864 0.91121 10.9575 0.87202 10.2167 0.855964C5.71113 0.758318 0.77347 4.92229 0.10922 9.37967C-2.52374e-06 10.1126 -2.50027e-06 10.6417 -2.45332e-06 11.7L0 67L-2.45332e-06 122.3Z" fill="#F4A261"/>
</svg>
