<svg width="127" height="122" viewBox="0 0 127 122" fill="none" xmlns="http://www.w3.org/2000/svg">
<path d="M63 110.3C63 111.32 63 111.829 63.1105 112.567C63.7787 117.023 68.8075 121.22 73.3119 121.079C74.057 121.056 74.2503 121.021 74.637 120.95C78.9011 120.174 83.0813 118.972 87.1091 117.357C94.7526 114.291 101.698 109.798 107.548 104.134C113.398 98.4691 118.038 91.7446 121.204 84.3437C124.37 76.9428 126 69.0106 126 61C126 52.9894 124.37 45.0572 121.204 37.6563C118.038 30.2554 113.398 23.5309 107.548 17.8665C101.698 12.2021 94.7526 7.70888 87.1091 4.64335C83.0813 3.02795 78.9011 1.82567 74.637 1.04968C74.2503 0.979307 74.057 0.944121 73.3119 0.92087C68.8075 0.780314 63.7787 4.97652 63.1105 9.43331C63 10.1705 63 10.6804 63 11.7L63 61L63 110.3Z" fill="#F4A261"/>
<path d="M102.177 16.6767L103.226 17.5164L100.949 24.1779L100.842 23.9846L104.939 21.5767L104.384 23.1462L99.2711 25.909L102.177 16.6767ZM105.428 19.2784L106.337 20.0057L104.269 26.7118L104.111 26.5242L109.888 22.8473L110.853 23.6196L102.595 28.5538L105.428 19.2784Z" fill="white"/>
<path d="M106.04 32.2152C105.741 31.8603 105.544 31.4713 105.449 31.048C105.359 30.6309 105.388 30.2123 105.536 29.7921C105.696 29.373 105.989 28.9819 106.415 28.6191C106.836 28.2614 107.273 28.0417 107.727 27.9599C108.187 27.8729 108.624 27.9063 109.036 28.06C109.453 28.2198 109.811 28.4771 110.11 28.832C110.409 29.1868 110.579 29.5566 110.621 29.9412C110.668 30.3207 110.637 30.668 110.526 30.9831L110.333 31.0525L111.207 30.4508L111.872 31.24L108.088 34.4591L107.369 33.6057L108.356 32.7659L108.214 33.0443C108.132 33.0717 108.007 33.084 107.837 33.0813C107.679 33.0795 107.491 33.0497 107.275 32.992C107.064 32.9403 106.851 32.8543 106.634 32.7339C106.424 32.6083 106.226 32.4354 106.04 32.2152ZM106.937 31.8458C107.118 32.06 107.32 32.219 107.543 32.3229C107.767 32.4268 107.995 32.4742 108.228 32.4651C108.472 32.4569 108.713 32.3887 108.95 32.2605L109.69 31.6307C109.832 31.4262 109.918 31.2058 109.949 30.9694C109.986 30.7278 109.969 30.4902 109.898 30.2567C109.833 30.0181 109.713 29.7947 109.537 29.5867C109.347 29.3603 109.116 29.199 108.847 29.1026C108.578 29.0063 108.296 28.9829 108.003 29.0326C107.716 29.0884 107.441 29.2277 107.179 29.4506C106.935 29.6579 106.762 29.9053 106.658 30.1926C106.555 30.4799 106.528 30.7706 106.577 31.0649C106.627 31.3592 106.747 31.6195 106.937 31.8458Z" fill="white"/>
<path d="M113.986 34.6654L113 35.3778L113.139 35.2368C113.536 35.1825 113.92 35.2534 114.29 35.4494C114.667 35.6412 114.978 35.9392 115.221 36.3435C115.465 36.7477 115.544 37.1494 115.457 37.5485C115.382 37.9502 115.158 38.2689 114.787 38.5046L111.65 40.4139L111.068 39.4479L113.866 37.7444C114.094 37.5962 114.241 37.4133 114.306 37.1957C114.382 36.9809 114.339 36.7399 114.178 36.4727C114.03 36.226 113.827 36.0449 113.571 35.9294C113.314 35.814 113.031 35.7708 112.722 35.7999C112.417 35.8358 112.107 35.9495 111.792 36.1409L109.804 37.3513L109.228 36.3956L113.471 33.8124L113.986 34.6654Z" fill="white"/>
<path d="M119.179 39.9947L119.618 41.0209L117.591 41.896L118.128 43.1539L117.324 43.5011L116.786 42.2432L113.052 43.8554L112.613 42.8292L116.348 41.217L115.989 40.3784L116.794 40.0312L117.152 40.8698L119.179 39.9947Z" fill="white"/>
<path d="M114.657 49.0289C114.56 48.6904 114.523 48.343 114.547 47.9867C114.579 47.6358 114.685 47.3222 114.864 47.0458L115.616 47.3162C115.48 47.5717 115.393 47.8176 115.352 48.0542C115.321 48.2962 115.335 48.521 115.395 48.7287C115.439 48.8826 115.499 49.0193 115.574 49.139C115.65 49.2587 115.741 49.3448 115.848 49.3974C115.964 49.4554 116.099 49.4623 116.253 49.4179C116.422 49.3692 116.54 49.2727 116.607 49.1285C116.676 48.992 116.716 48.8264 116.727 48.6317C116.74 48.4447 116.747 48.2473 116.745 48.0395C116.764 47.6095 116.859 47.2574 117.03 46.9832C117.202 46.709 117.453 46.5242 117.783 46.4289C118.037 46.3558 118.289 46.3497 118.539 46.4108C118.8 46.4773 119.034 46.6136 119.243 46.8199C119.453 47.0339 119.612 47.3255 119.717 47.6947C119.811 48.0255 119.854 48.3339 119.844 48.6198C119.842 48.9035 119.781 49.1874 119.663 49.4714L118.872 49.2372C118.978 49.0567 119.039 48.8602 119.053 48.648C119.067 48.4357 119.056 48.2515 119.02 48.0955C118.991 47.9625 118.935 47.8411 118.854 47.7313C118.775 47.6292 118.682 47.5519 118.575 47.4993C118.469 47.4468 118.358 47.4371 118.243 47.4704C118.081 47.5169 117.966 47.6085 117.897 47.745C117.828 47.8815 117.786 48.0432 117.773 48.2302C117.77 48.4227 117.762 48.6124 117.749 48.7993C117.747 49.0578 117.716 49.2959 117.653 49.5138C117.59 49.7317 117.49 49.9188 117.352 50.0753C117.215 50.2394 117.02 50.3581 116.767 50.4312C116.482 50.5132 116.197 50.5205 115.912 50.4529C115.636 50.3909 115.386 50.2424 115.161 50.0076C114.946 49.7782 114.778 49.452 114.657 49.0289Z" fill="white"/>
<path d="M123.344 58.3731L123.388 59.4882L121.182 59.5758L121.235 60.9427L120.36 60.9775L120.306 59.6105L116.242 59.7718L116.198 58.6566L120.263 58.4954L120.227 57.584L121.102 57.5493L121.138 58.4606L123.344 58.3731Z" fill="white"/>
<path d="M118.694 63.577C119.187 63.6265 119.621 63.7866 119.996 64.0574C120.371 64.3361 120.653 64.694 120.842 65.1311C121.032 65.5683 121.101 66.0495 121.048 66.5749C120.994 67.1162 120.832 67.5783 120.561 67.9612C120.289 68.344 119.944 68.6269 119.524 68.8099C119.103 68.9929 118.646 69.0597 118.153 69.0102C117.659 68.9607 117.221 68.8041 116.837 68.5405C116.461 68.2777 116.178 67.9277 115.989 67.4906C115.798 67.0615 115.73 66.5762 115.784 66.0349C115.836 65.5095 115.99 65.0506 116.246 64.6582C116.51 64.2746 116.848 63.9829 117.262 63.7832C117.683 63.5922 118.16 63.5235 118.694 63.577ZM118.571 64.6863C118.253 64.6544 117.955 64.6969 117.678 64.8138C117.409 64.9316 117.187 65.1023 117.012 65.3259C116.836 65.5576 116.734 65.8206 116.704 66.1152C116.674 66.4256 116.722 66.7079 116.849 66.9619C116.976 67.2238 117.16 67.4352 117.401 67.5961C117.65 67.7578 117.934 67.8546 118.253 67.8865C118.571 67.9184 118.864 67.8795 119.133 67.7697C119.409 67.6607 119.635 67.4904 119.81 67.2588C119.993 67.036 120.1 66.7693 120.131 66.4588C120.161 66.1563 120.109 65.8737 119.974 65.611C119.839 65.3562 119.647 65.144 119.399 64.9743C119.157 64.8134 118.882 64.7174 118.571 64.6863Z" fill="white"/>
<path d="M121.962 78.1012L119.882 83.4722L118.842 83.0659L119.683 80.895L112.642 78.1423L113.063 77.0569L120.104 79.8096L120.923 77.6948L121.962 78.1012Z" fill="white"/>
<path d="M109.505 83.9067C109.79 83.4158 110.132 83.0507 110.531 82.8115C110.936 82.5763 111.364 82.4612 111.815 82.4662C112.268 82.4821 112.716 82.6196 113.157 82.879C113.578 83.1261 113.898 83.4582 114.119 83.8751C114.339 84.292 114.448 84.7411 114.445 85.2222C114.443 85.7033 114.313 86.1651 114.056 86.6076C113.726 87.1746 113.287 87.5476 112.738 87.7265C112.19 87.9054 111.588 87.8904 110.932 87.6814L111.748 83.4153L112.45 83.5214L111.816 87.0454L111.802 86.7589C112.078 86.8097 112.355 86.7869 112.633 86.6905C112.918 86.5982 113.151 86.3964 113.332 86.0853C113.485 85.8225 113.557 85.5489 113.546 85.2645C113.543 84.9842 113.465 84.7204 113.312 84.4732C113.16 84.226 112.943 84.0193 112.66 83.8532C112.363 83.679 112.065 83.5872 111.765 83.578C111.472 83.5728 111.197 83.6389 110.941 83.7763C110.688 83.9246 110.481 84.1371 110.32 84.4136C110.212 84.6003 110.142 84.8004 110.11 85.0137C110.074 85.234 110.068 85.4527 110.089 85.6696L109.116 85.6963C109.096 85.3968 109.119 85.0859 109.187 84.7636C109.25 84.4482 109.356 84.1625 109.505 83.9067Z" fill="white"/>
<path d="M105.72 89.1428C106.014 88.7833 106.359 88.5185 106.756 88.3482C107.148 88.1841 107.563 88.1374 108.001 88.2081C108.44 88.2901 108.876 88.5091 109.308 88.8652C109.734 89.2163 110.028 89.6089 110.19 90.043C110.358 90.4822 110.404 90.9192 110.328 91.354C110.247 91.7951 110.06 92.1953 109.766 92.5548C109.473 92.9142 109.142 93.1492 108.773 93.2597C108.41 93.3753 108.064 93.4066 107.736 93.3536L107.633 93.1758L108.38 93.931L107.727 94.7305L103.893 91.571L104.599 90.7065L105.599 91.5307L105.301 91.4405C105.259 91.3648 105.225 91.2429 105.197 91.0747C105.17 90.9178 105.165 90.7274 105.183 90.5035C105.195 90.2857 105.241 90.059 105.32 89.8233C105.405 89.5927 105.538 89.3659 105.72 89.1428ZM106.244 89.9628C106.067 90.1797 105.947 90.408 105.886 90.6477C105.825 90.8873 105.819 91.1215 105.87 91.35C105.922 91.5899 106.033 91.8154 106.201 92.0267L106.951 92.6449C107.177 92.7479 107.408 92.7934 107.645 92.7814C107.888 92.7745 108.118 92.7148 108.333 92.6023C108.555 92.4949 108.752 92.3359 108.924 92.1252C109.111 91.8959 109.228 91.6394 109.274 91.3557C109.319 91.072 109.291 90.7899 109.19 90.5093C109.083 90.2349 108.897 89.9884 108.632 89.7696C108.385 89.5661 108.112 89.4393 107.812 89.3891C107.512 89.339 107.222 89.3647 106.943 89.4664C106.664 89.568 106.431 89.7335 106.244 89.9628Z" fill="white"/>
<path d="M99.4976 96.1424C99.5446 95.8608 99.6484 95.5761 99.8087 95.2885C99.9691 95.0008 100.164 94.7516 100.395 94.541C100.796 94.1738 101.22 93.9325 101.666 93.8172C102.112 93.7018 102.549 93.7081 102.978 93.8361C103.407 93.9754 103.798 94.2406 104.153 94.6319C104.507 95.0231 104.728 95.445 104.814 95.8975C104.894 96.3554 104.86 96.7937 104.71 97.2124C104.56 97.6425 104.317 98.0114 103.98 98.3192C103.685 98.5892 103.385 98.788 103.079 98.9157C102.768 99.0487 102.465 99.1196 102.171 99.1286L102.095 98.2224C102.276 98.2082 102.473 98.1635 102.686 98.0883C102.899 98.0131 103.102 97.8864 103.297 97.7082C103.509 97.5138 103.656 97.2766 103.737 96.9966C103.817 96.7278 103.825 96.45 103.759 96.1631C103.688 95.8816 103.544 95.6223 103.329 95.3852C103.125 95.1599 102.882 94.9981 102.598 94.8997C102.32 94.8072 102.035 94.791 101.744 94.8512C101.459 94.9173 101.195 95.061 100.953 95.2824C100.794 95.4282 100.671 95.5843 100.584 95.7505C100.491 95.9221 100.429 96.098 100.398 96.2782L99.4976 96.1424Z" fill="white"/>
<path d="M97.8871 96.6431L103.112 104.322L102.212 104.941L99.1335 100.416L99.2681 100.572C99.3141 100.938 99.2561 101.308 99.0941 101.681C98.9254 102.059 98.6466 102.382 98.2575 102.649C97.8685 102.916 97.4732 103.018 97.0717 102.954C96.6682 102.901 96.3393 102.695 96.0852 102.336L94.0197 99.2998L94.9495 98.6611L96.7922 101.37C96.9518 101.59 97.1415 101.727 97.3613 101.779C97.579 101.843 97.8164 101.787 98.0736 101.61C98.311 101.447 98.478 101.231 98.5748 100.96C98.676 100.697 98.7039 100.411 98.6585 100.102C98.6065 99.7982 98.4793 99.4974 98.2768 99.1998L96.9673 97.275L97.8871 96.6431Z" fill="white"/>
</svg>
