<svg width="127" height="122" viewBox="0 0 127 122" fill="none" xmlns="http://www.w3.org/2000/svg">
<path d="M63 110.3C63 111.32 63 111.829 63.1105 112.567C63.7787 117.023 68.8075 121.22 73.3119 121.079C74.057 121.056 74.2503 121.021 74.637 120.95C78.9011 120.174 83.0813 118.972 87.1091 117.357C94.7526 114.291 101.698 109.798 107.548 104.134C113.398 98.4691 118.038 91.7446 121.204 84.3437C124.37 76.9428 126 69.0106 126 61C126 52.9894 124.37 45.0572 121.204 37.6563C118.038 30.2554 113.398 23.5309 107.548 17.8665C101.698 12.2021 94.7526 7.70888 87.1091 4.64335C83.0813 3.02795 78.9011 1.82567 74.637 1.04968C74.2503 0.979307 74.057 0.944121 73.3119 0.92087C68.8075 0.780314 63.7787 4.97652 63.1105 9.43331C63 10.1705 63 10.6804 63 11.7L63 61L63 110.3Z" fill="#F4A261"/>
<path d="M104.706 16.7534L105.708 17.6496L103.629 24.6213L103.526 24.4168L107.373 21.939L106.866 23.5814L102.062 26.4191L104.706 16.7534ZM107.81 19.5298L108.677 20.306L106.797 27.3275L106.646 27.1283L112.067 23.3384L112.988 24.1625L105.235 29.2418L107.81 19.5298Z" fill="white"/>
<path d="M107.817 32.732C107.538 32.3612 107.356 31.9534 107.27 31.5087C107.189 31.0703 107.22 30.6293 107.363 30.1855C107.517 29.7426 107.797 29.3281 108.202 28.9419C108.602 28.5613 109.017 28.3257 109.446 28.2353C109.881 28.1393 110.292 28.1703 110.679 28.3282C111.071 28.4924 111.407 28.76 111.686 29.1307C111.965 29.5015 112.122 29.8892 112.158 30.2938C112.2 30.693 112.167 31.0589 112.06 31.3918L111.877 31.4666L112.707 30.8247L113.328 31.6494L109.73 35.0751L109.059 34.1834L109.997 33.2897L109.861 33.5842C109.784 33.6138 109.665 33.628 109.505 33.6267C109.356 33.6264 109.179 33.5968 108.976 33.5381C108.777 33.4857 108.576 33.3972 108.373 33.2725C108.176 33.1423 107.99 32.9621 107.817 32.732ZM108.667 32.3345C108.835 32.5583 109.024 32.7238 109.234 32.831C109.444 32.9383 109.659 32.986 109.879 32.9742C110.11 32.9633 110.337 32.8891 110.562 32.7518L111.266 32.0816C111.401 31.865 111.485 31.632 111.516 31.3828C111.553 31.1281 111.539 30.8781 111.474 30.633C111.414 30.3823 111.303 30.1482 111.139 29.9309C110.961 29.6944 110.746 29.5267 110.492 29.4278C110.239 29.3289 109.974 29.307 109.697 29.3621C109.425 29.4236 109.165 29.5729 108.915 29.8101C108.684 30.0308 108.518 30.2929 108.418 30.5964C108.318 30.8999 108.29 31.2063 108.334 31.5157C108.378 31.8251 108.489 32.098 108.667 32.3345Z" fill="white"/>
<path d="M115 34.9175L114.045 35.6851L114.181 35.5346C114.56 35.4681 114.925 35.5326 115.274 35.7279C115.629 35.9188 115.919 36.2221 116.142 36.6378C116.366 37.0535 116.432 37.4707 116.341 37.8892C116.26 38.3102 116.04 38.6482 115.68 38.9033L112.647 40.9727L112.112 39.9791L114.819 38.1329C115.04 37.9726 115.183 37.7781 115.25 37.5496C115.327 37.3235 115.292 37.0731 115.144 36.7983C115.008 36.5446 114.819 36.3607 114.577 36.2466C114.335 36.1324 114.066 36.0943 113.77 36.1323C113.478 36.1774 113.18 36.3036 112.876 36.511L110.953 37.823L110.425 36.84L114.529 34.0402L115 34.9175Z" fill="white"/>
<path d="M119.721 40.1164L120.118 41.1595L118.131 42.1223L118.617 43.4009L117.829 43.7829L117.342 42.5043L113.681 44.2782L113.285 43.2351L116.945 41.4612L116.621 40.6089L117.409 40.2269L117.734 41.0793L119.721 40.1164Z" fill="white"/>
<path d="M114.969 49.3608C114.883 49.0196 114.856 48.6676 114.887 48.3049C114.928 47.9474 115.04 47.6257 115.223 47.3398L115.955 47.5935C115.815 47.8568 115.723 48.1093 115.677 48.3507C115.641 48.5975 115.649 48.8256 115.702 49.0349C115.741 49.19 115.797 49.3273 115.868 49.4468C115.94 49.5663 116.027 49.6512 116.131 49.7016C116.243 49.7573 116.376 49.7605 116.528 49.7111C116.696 49.6568 116.814 49.5554 116.884 49.407C116.955 49.2663 116.998 49.0969 117.014 48.8988C117.032 48.7084 117.043 48.5077 117.047 48.2965C117.076 47.8591 117.178 47.4986 117.353 47.2152C117.529 46.9317 117.78 46.7369 118.107 46.6307C118.358 46.5493 118.606 46.536 118.85 46.5909C119.104 46.6512 119.331 46.7831 119.531 46.9869C119.733 47.1983 119.881 47.4902 119.976 47.8624C120.06 48.1959 120.094 48.508 120.077 48.7988C120.068 49.0872 120.001 49.3773 119.878 49.6692L119.106 49.4536C119.216 49.2671 119.28 49.0658 119.299 48.8497C119.319 48.6336 119.312 48.4468 119.281 48.2892C119.255 48.1549 119.204 48.0332 119.126 47.9239C119.051 47.8224 118.962 47.7464 118.859 47.6961C118.755 47.6457 118.647 47.639 118.532 47.676C118.373 47.7279 118.257 47.8241 118.186 47.9648C118.114 48.1055 118.07 48.271 118.052 48.4613C118.044 48.657 118.031 48.85 118.014 49.0403C118.006 49.303 117.969 49.5458 117.902 49.769C117.835 49.9921 117.731 50.1852 117.591 50.348C117.453 50.5187 117.259 50.6447 117.008 50.7262C116.726 50.8176 116.446 50.833 116.167 50.7724C115.898 50.7171 115.656 50.5733 115.44 50.341C115.234 50.1141 115.078 49.7873 114.969 49.3608Z" fill="white"/>
<path d="M123.354 58.4171L123.391 59.5325L121.185 59.635L121.231 61.0022L120.355 61.0429L120.31 59.6756L116.247 59.8644L116.21 58.7491L120.273 58.5603L120.243 57.6488L121.118 57.6081L121.148 58.5196L123.354 58.4171Z" fill="white"/>
<path d="M118.705 63.5509C119.198 63.6052 119.633 63.7698 120.009 64.0446C120.385 64.3274 120.669 64.6887 120.862 65.1284C121.055 65.568 121.128 66.0508 121.08 66.5767C121.031 67.1184 120.873 67.5798 120.605 67.9607C120.338 68.3416 119.995 68.6217 119.577 68.801C119.16 68.9803 118.704 69.0428 118.211 68.9885C117.718 68.9342 117.279 68.7732 116.894 68.5054C116.516 68.2386 116.231 67.8853 116.038 67.4456C115.844 67.0139 115.772 66.5271 115.821 65.9853C115.869 65.4595 116.019 65.0013 116.271 64.6106C116.531 64.2288 116.866 63.9398 117.278 63.7437C117.696 63.5565 118.172 63.4922 118.705 63.5509ZM118.592 64.661C118.274 64.626 117.977 64.6657 117.702 64.7802C117.434 64.8956 117.214 65.0645 117.041 65.2868C116.868 65.5172 116.768 65.7798 116.741 66.0745C116.713 66.3853 116.763 66.6685 116.893 66.9241C117.021 67.1877 117.207 67.4013 117.449 67.5648C117.699 67.7291 117.983 67.8288 118.301 67.8638C118.619 67.8989 118.912 67.8627 119.178 67.7553C119.453 67.6487 119.677 67.4803 119.851 67.2499C120.031 67.0284 120.136 66.7623 120.164 66.4516C120.192 66.1488 120.137 65.8652 120 65.6007C119.863 65.3442 119.67 65.1297 119.42 64.9574C119.178 64.794 118.902 64.6952 118.592 64.661Z" fill="white"/>
<path d="M122.246 78.1485L120.353 83.5887L119.33 83.143L120.095 80.9442L113.164 77.9247L113.547 76.8253L120.477 79.8448L121.223 77.7027L122.246 78.1485Z" fill="white"/>
<path d="M110.485 83.6611C110.748 83.1575 111.067 82.7862 111.443 82.5473C111.825 82.3127 112.232 82.2036 112.664 82.22C113.098 82.2478 113.529 82.4022 113.958 82.6829C114.366 82.9506 114.68 83.304 114.899 83.7433C115.119 84.1826 115.233 84.6524 115.242 85.1529C115.25 85.6534 115.136 86.1306 114.899 86.5846C114.596 87.1663 114.184 87.5434 113.663 87.7158C113.142 87.8883 112.566 87.8577 111.933 87.6239L112.621 83.2058L113.295 83.3337L112.765 86.9843L112.746 86.6859C113.011 86.7455 113.275 86.7287 113.539 86.6354C113.81 86.5464 114.029 86.3424 114.195 86.0232C114.336 85.7536 114.398 85.4707 114.382 85.1746C114.373 84.8828 114.292 84.6064 114.141 84.3454C113.99 84.0844 113.777 83.864 113.503 83.6841C113.215 83.4955 112.928 83.3926 112.64 83.3755C112.36 83.3628 112.098 83.4247 111.857 83.5613C111.618 83.7093 111.425 83.9252 111.277 84.2089C111.177 84.4004 111.114 84.6068 111.088 84.828C111.059 85.0563 111.057 85.2836 111.083 85.5099L110.152 85.5133C110.126 85.2013 110.142 84.8784 110.199 84.5447C110.253 84.2181 110.348 83.9236 110.485 83.6611Z" fill="white"/>
<path d="M107.235 88.9394C107.509 88.5647 107.832 88.29 108.206 88.1155C108.575 87.9474 108.966 87.903 109.381 87.9823C109.797 88.0735 110.21 88.3089 110.622 88.6883C111.028 89.0624 111.31 89.4786 111.467 89.937C111.63 90.4008 111.678 90.861 111.61 91.3174C111.538 91.7803 111.365 92.1991 111.091 92.5738C110.818 92.9485 110.507 93.1919 110.159 93.3039C109.818 93.4214 109.491 93.4504 109.181 93.3909L109.082 93.2027L109.795 94.0054L109.186 94.8388L105.533 91.4724L106.191 90.5711L107.144 91.4494L106.861 91.3511C106.821 91.2711 106.787 91.1424 106.759 90.9653C106.732 90.8 106.726 90.5996 106.74 90.3643C106.75 90.1355 106.791 89.8975 106.863 89.6506C106.941 89.409 107.065 89.1719 107.235 88.9394ZM107.738 89.8078C107.572 90.0339 107.462 90.2726 107.406 90.524C107.351 90.7753 107.348 91.0215 107.398 91.2625C107.45 91.5153 107.556 91.7538 107.717 91.9779L108.432 92.6366C108.647 92.7475 108.866 92.798 109.089 92.7881C109.319 92.7836 109.535 92.7234 109.738 92.6075C109.947 92.4971 110.131 92.3321 110.292 92.1124C110.466 91.8734 110.574 91.605 110.614 91.3071C110.654 91.0093 110.625 90.7123 110.527 90.416C110.423 90.1263 110.245 89.8648 109.992 89.6317C109.757 89.4149 109.497 89.2784 109.213 89.2223C108.93 89.1661 108.656 89.1899 108.394 89.2936C108.131 89.3974 107.912 89.5687 107.738 89.8078Z" fill="white"/>
<path d="M101.703 96.1268C101.749 95.8297 101.848 95.5292 102.001 95.2252C102.153 94.9212 102.339 94.6576 102.557 94.4344C102.937 94.0453 103.337 93.7887 103.758 93.6647C104.179 93.5408 104.592 93.545 104.996 93.6775C105.399 93.822 105.766 94.0994 106.099 94.5098C106.431 94.9202 106.636 95.3636 106.715 95.8399C106.789 96.322 106.754 96.7841 106.611 97.2262C106.467 97.6802 106.236 98.0703 105.917 98.3965C105.638 98.6826 105.354 98.8937 105.065 99.0299C104.771 99.1717 104.486 99.2482 104.208 99.2592L104.141 98.3047C104.312 98.2887 104.498 98.2405 104.699 98.1602C104.899 98.0798 105.092 97.9451 105.276 97.7563C105.478 97.5503 105.617 97.2995 105.695 97.004C105.772 96.7204 105.78 96.4276 105.72 96.1256C105.654 95.8293 105.52 95.5568 105.319 95.3081C105.127 95.0718 104.898 94.9026 104.632 94.8004C104.37 94.7044 104.102 94.6889 103.827 94.7539C103.558 94.8251 103.309 94.978 103.079 95.2127C102.928 95.3672 102.812 95.5322 102.729 95.7079C102.641 95.8893 102.581 96.075 102.551 96.265L101.703 96.1268Z" fill="white"/>
<path d="M100.497 96.5384L105.317 104.478L104.451 105.144L101.612 100.466L101.737 100.626C101.774 101.009 101.712 101.398 101.551 101.792C101.385 102.191 101.114 102.535 100.74 102.823C100.366 103.111 99.9889 103.225 99.6091 103.166C99.227 103.119 98.9186 102.91 98.684 102.539L96.7785 99.3998L97.6725 98.7119L99.3724 101.512C99.5199 101.74 99.6975 101.879 99.9051 101.93C100.111 101.993 100.337 101.929 100.584 101.739C100.812 101.563 100.975 101.333 101.072 101.048C101.172 100.769 101.204 100.469 101.167 100.147C101.123 99.8293 101.007 99.5167 100.821 99.209L99.6126 97.219L100.497 96.5384Z" fill="white"/>
</svg>
