<svg width="63" height="122" viewBox="0 0 63 122" fill="none" xmlns="http://www.w3.org/2000/svg">
<path d="M-2.22563e-06 110.3C-2.27166e-06 111.32 -2.29467e-06 111.829 0.110529 112.567C0.778722 117.023 5.80748 121.22 10.3119 121.079C11.057 121.056 11.2503 121.021 11.637 120.95C15.9011 120.174 20.0813 118.972 24.1091 117.357C31.7526 114.291 38.6976 109.798 44.5477 104.134C50.3978 98.4691 55.0384 91.7446 58.2044 84.3437C61.3705 76.9428 63 69.0106 63 61C63 52.9894 61.3705 45.0572 58.2044 37.6563C55.0384 30.2554 50.3978 23.5309 44.5477 17.8665C38.6976 12.2021 31.7526 7.70888 24.1091 4.64335C20.0813 3.02795 15.9011 1.82567 11.637 1.04968C11.2503 0.979307 11.057 0.944121 10.3119 0.92087C5.80748 0.780314 0.778722 4.97652 0.110529 9.43331C-2.29467e-06 10.1705 -2.27166e-06 10.6804 -2.22563e-06 11.7L0 61L-2.22563e-06 110.3Z" fill="#F4A261"/>
</svg>
