<svg width="63" height="122" viewBox="0 0 63 122" fill="none" xmlns="http://www.w3.org/2000/svg">
<path d="M63 110.3C63 111.32 63 111.83 62.8895 112.567C62.2213 117.024 57.1924 121.22 52.688 121.079C51.9429 121.056 51.7494 121.021 51.3625 120.95C38.9818 118.697 27.4864 112.881 18.4523 104.134C6.63748 92.6938 -4.64803e-07 77.1782 0 61C4.64803e-07 44.8218 6.63748 29.3062 18.4523 17.8665C27.4864 9.11912 38.9818 3.30277 51.3625 1.04951C51.7494 0.979091 51.9429 0.943881 52.688 0.92062C57.1924 0.78 62.2213 4.97625 62.8895 9.43304C63 10.1703 63 10.6802 63 11.7L63 61L63 110.3Z" fill="#E9C46A"/>
</svg>
