<svg width="640" height="272" viewBox="0 0 640 272" fill="none" xmlns="http://www.w3.org/2000/svg">
<g clip-path="url(#clip0_183_1464)">
<rect width="640" height="272" rx="50" fill="#FFFAFA"/>
<mask id="path-2-inside-1_183_1464" fill="white">
<path d="M0 46C0 20.5949 20.5949 0 46 0H594C619.405 0 640 20.5949 640 46V46H0V46Z"/>
</mask>
<path d="M0 0H640H0ZM640 47H0V46C3.9753e-09 45.6666 0.00362381 45.3333 0.0108708 45L46 45H639.989C639.996 45.3333 640 45.6666 640 46V47ZM0 46V0V46ZM640 0V46V0Z" fill="url(#paint0_linear_183_1464)" mask="url(#path-2-inside-1_183_1464)"/>
<mask id="path-4-inside-2_183_1464" fill="white">
<path d="M0 226H640V226C640 251.405 619.405 272 594 272H46C20.5949 272 0 251.405 0 226V226Z"/>
</mask>
<path d="M0 225H640V226C640 226.333 639.996 226.667 639.989 227L46 227H0.0106545C0.00362373 226.667 -1.45716e-08 226.333 0 226L0 225ZM640 272H0H640ZM0 272V226V272ZM640 226V272V226Z" fill="url(#paint1_linear_183_1464)" mask="url(#path-4-inside-2_183_1464)"/>
</g>
<defs>
<linearGradient id="paint0_linear_183_1464" x1="0" y1="23" x2="640" y2="23" gradientUnits="userSpaceOnUse">
<stop stop-color="#264653" stop-opacity="0.8"/>
<stop offset="1" stop-color="#E76F51" stop-opacity="0.8"/>
</linearGradient>
<linearGradient id="paint1_linear_183_1464" x1="0" y1="249" x2="640" y2="249" gradientUnits="userSpaceOnUse">
<stop stop-color="#E76F51" stop-opacity="0.8"/>
<stop offset="1" stop-color="#264653" stop-opacity="0.8"/>
</linearGradient>
<clipPath id="clip0_183_1464">
<rect width="640" height="272" rx="50" fill="white"/>
</clipPath>
</defs>
</svg>
