<svg width="127" height="122" viewBox="0 0 127 122" fill="none" xmlns="http://www.w3.org/2000/svg">
<path d="M64 110.3C64 111.32 64 111.83 63.8895 112.567C63.2213 117.024 58.1924 121.22 53.688 121.079C52.9429 121.056 52.7494 121.021 52.3625 120.95C39.9818 118.697 28.4864 112.881 19.4523 104.134C7.63748 92.6938 1 77.1782 1 61C1 44.8218 7.63748 29.3062 19.4523 17.8665C28.4864 9.11912 39.9818 3.30277 52.3625 1.04951C52.7494 0.979091 52.9429 0.943881 53.688 0.92062C58.1924 0.78 63.2213 4.97625 63.8895 9.43304C64 10.1703 64 10.6802 64 11.7L64 61L64 110.3Z" fill="#E9C46A"/>
<path d="M22.1044 102.763L21.093 101.878L23.2102 94.9656L23.3144 95.1679L19.4176 97.633L19.9337 96.0045L24.7991 93.1803L22.1044 102.763ZM18.9709 100.021L18.095 99.2544L20.0113 92.2931L20.1638 92.49L14.6726 96.2592L13.7425 95.4452L21.5954 90.3924L18.9709 100.021Z" fill="white"/>
<path d="M18.9366 86.948C19.2196 87.3157 19.4049 87.7199 19.4928 88.1606C19.5757 88.5948 19.545 89.0316 19.4005 89.4708C19.2454 89.9092 18.9629 90.3192 18.5531 90.7008C18.1491 91.077 17.7301 91.3095 17.2958 91.3982C16.8558 91.4924 16.4396 91.4609 16.0474 91.3038C15.6503 91.1403 15.3102 90.8747 15.0272 90.507C14.7443 90.1393 14.5843 89.755 14.5472 89.3542C14.5043 88.9588 14.5369 88.5964 14.6453 88.267L14.8297 88.1932L13.991 88.8273L13.3617 88.0094L16.9973 84.6237L17.6779 85.5081L16.7295 86.3914L16.867 86.1C16.9451 86.0708 17.0651 86.057 17.2271 86.0585C17.3783 86.0592 17.5569 86.0888 17.7628 86.1474C17.9638 86.1997 18.1672 86.2877 18.3731 86.4116C18.5731 86.541 18.761 86.7198 18.9366 86.948ZM18.0774 87.34C17.9067 87.1181 17.715 86.9538 17.5022 86.8471C17.2895 86.7405 17.0719 86.6928 16.8495 86.7041C16.6163 86.7144 16.386 86.7874 16.1586 86.9229L15.4473 87.5854C15.3107 87.7997 15.2268 88.0302 15.1956 88.2769C15.1585 88.5291 15.1731 88.7767 15.2395 89.0196C15.3 89.268 15.4132 89.5 15.579 89.7156C15.7595 89.9502 15.9781 90.1167 16.2347 90.2151C16.4914 90.3135 16.7597 90.3357 17.0397 90.2817C17.3149 90.2214 17.5783 90.074 17.8301 89.8395C18.0643 89.6215 18.2316 89.3622 18.3321 89.0618C18.4326 88.7615 18.4604 88.458 18.4155 88.1516C18.3706 87.8451 18.258 87.5745 18.0774 87.34Z" fill="white"/>
<path d="M11.6564 84.7803L12.6184 84.0236L12.4818 84.1722C12.0986 84.2362 11.7304 84.1704 11.3772 83.9748C11.0174 83.7837 10.7238 83.4813 10.4964 83.0677C10.2689 82.6541 10.2004 82.24 10.2907 81.8252C10.3705 81.4079 10.5915 81.0736 10.9536 80.8225L14.0083 78.7847L14.5519 79.7731L11.8266 81.5911C11.6042 81.7491 11.4597 81.9413 11.3932 82.1677C11.3162 82.3915 11.3528 82.6401 11.5032 82.9135C11.6419 83.1659 11.8338 83.3493 12.0787 83.4638C12.3235 83.5783 12.5952 83.6175 12.8937 83.5813C13.1883 83.538 13.4887 83.4143 13.7948 83.2101L15.7314 81.9182L16.2692 82.8961L12.1363 85.653L11.6564 84.7803Z" fill="white"/>
<path d="M6.88092 79.6258L6.47602 78.5858L8.47149 77.6407L7.97516 76.3659L8.76684 75.9909L9.26318 77.2657L12.9396 75.5243L13.3445 76.5643L9.66808 78.3056L9.99897 79.1555L9.20729 79.5305L8.8764 78.6806L6.88092 79.6258Z" fill="white"/>
<path d="M11.6126 70.487C11.7011 70.8277 11.7303 71.1788 11.7003 71.5403C11.6606 71.8965 11.5497 72.2166 11.3676 72.5006L10.6323 72.2434C10.7707 71.9816 10.8624 71.7305 10.9073 71.49C10.9425 71.2442 10.933 71.0167 10.8788 70.8076C10.8386 70.6528 10.7824 70.5155 10.7101 70.396C10.6378 70.2764 10.5496 70.1912 10.4457 70.1404C10.3321 70.0842 10.199 70.0803 10.0465 70.1287C9.8787 70.1819 9.76031 70.2822 9.69132 70.4298C9.62031 70.5697 9.5774 70.7383 9.56261 70.9357C9.5458 71.1254 9.53583 71.3256 9.53267 71.5361C9.5055 71.9721 9.40465 72.3309 9.23012 72.6125C9.05559 72.8941 8.80437 73.0869 8.47645 73.1908C8.22479 73.2706 7.97613 73.2824 7.73045 73.2262C7.47514 73.1647 7.24671 73.0318 7.04515 72.8275C6.84157 72.6155 6.69157 72.3236 6.59513 71.9519C6.50873 71.6189 6.47332 71.3075 6.48889 71.0176C6.49684 70.7302 6.56218 70.4413 6.68493 70.151L7.4599 70.3704C7.35117 70.5557 7.28761 70.7561 7.2692 70.9714C7.2508 71.1867 7.25788 71.3731 7.29044 71.5304C7.31697 71.6644 7.36918 71.7861 7.44709 71.8955C7.52298 71.9972 7.61292 72.0734 7.71689 72.1243C7.82087 72.1751 7.93006 72.1824 8.04445 72.1461C8.20459 72.0954 8.32017 72.0001 8.39118 71.8602C8.46219 71.7204 8.50609 71.5556 8.5229 71.3659C8.53007 71.1709 8.54205 70.9785 8.55886 70.7888C8.56521 70.527 8.60147 70.2851 8.66763 70.063C8.7338 69.8408 8.83671 69.649 8.97635 69.4874C9.11398 69.3181 9.30863 69.1935 9.56028 69.1137C9.84245 69.0243 10.1236 69.0106 10.4038 69.0726C10.6744 69.1293 10.9183 69.274 11.1355 69.5069C11.3431 69.7344 11.5021 70.0611 11.6126 70.487Z" fill="white"/>
<path d="M3.19041 61.4974L3.15223 60.3821L5.35799 60.2826L5.31119 58.9154L6.1863 58.8759L6.2331 60.2431L10.297 60.0598L10.3351 61.1751L6.27127 61.3584L6.30247 62.2699L5.42736 62.3094L5.39616 61.3979L3.19041 61.4974Z" fill="white"/>
<path d="M7.84038 56.4174C7.34725 56.364 6.91252 56.2003 6.53618 55.9263C6.16057 55.6443 5.87657 55.2837 5.68417 54.8445C5.49178 54.4053 5.41986 53.9228 5.46842 53.3971C5.51845 52.8554 5.67755 52.3939 5.94573 52.0126C6.21391 51.6312 6.55714 51.3506 6.97542 51.1705C7.3937 50.9905 7.8494 50.9272 8.34252 50.9805C8.83565 51.0338 9.27472 51.194 9.65976 51.4609C10.0368 51.727 10.3216 52.0796 10.514 52.5188C10.7071 52.95 10.7787 53.4365 10.7286 53.9782C10.6801 54.5039 10.5293 54.9623 10.2763 55.3533C10.016 55.7355 9.68004 56.025 9.26824 56.2218C8.84922 56.4098 8.37327 56.475 7.84038 56.4174ZM7.95494 55.3074C8.27309 55.3418 8.57002 55.3015 8.84573 55.1865C9.11349 55.0706 9.33396 54.9014 9.50715 54.6788C9.68108 54.4482 9.78165 54.1855 9.80888 53.8907C9.83757 53.5801 9.78739 53.2971 9.65835 53.0417C9.53004 52.7784 9.34488 52.5653 9.10287 52.4024C8.85291 52.2385 8.56886 52.1394 8.25071 52.105C7.93257 52.0706 7.63999 52.1073 7.37296 52.2152C7.09799 52.3222 6.87354 52.4911 6.69961 52.7217C6.51846 52.9434 6.41355 53.2097 6.38485 53.5203C6.35689 53.8231 6.41105 54.1065 6.54731 54.3706C6.68431 54.6268 6.87742 54.8408 7.12665 55.0126C7.36865 55.1756 7.64475 55.2738 7.95494 55.3074Z" fill="white"/>
<path d="M4.53906 41.3734L4.92877 40.2765L11.8829 43.2421L13.3574 39.0922L14.3839 39.53L12.5197 44.7767L4.53906 41.3734Z" fill="white"/>
<path d="M16.192 36.4806C15.9249 36.9819 15.6011 37.3521 15.2208 37.5912C14.8337 37.826 14.4225 37.9364 13.9872 37.9224C13.549 37.897 13.1145 37.746 12.6835 37.4695C12.2728 37.2059 11.9575 36.8567 11.7374 36.4218C11.5174 35.9869 11.4042 35.5211 11.3978 35.0243C11.3914 34.5276 11.5086 34.0533 11.7494 33.6014C12.0578 33.0224 12.4752 32.646 13.0016 32.4722C13.5279 32.2983 14.1096 32.3257 14.7466 32.5545L14.0344 36.9436L13.3548 36.8201L13.9046 33.1937L13.923 33.4898C13.6557 33.4319 13.3886 33.45 13.1216 33.544C12.848 33.6337 12.6265 33.8374 12.4572 34.1551C12.3143 34.4234 12.2504 34.7045 12.2654 34.9984C12.2738 35.288 12.3537 35.5619 12.5052 35.8202C12.6567 36.0785 12.8705 36.2962 13.1465 36.4733C13.4361 36.6591 13.7258 36.7598 14.0157 36.7753C14.2988 36.7864 14.5627 36.7236 14.8072 36.5868C15.0488 36.4387 15.2448 36.2234 15.3953 35.941C15.4969 35.7503 15.561 35.5452 15.5877 35.3254C15.6182 35.0987 15.6209 34.8731 15.596 34.6486L16.5355 34.6404C16.5602 34.95 16.543 35.2705 16.4839 35.6021C16.4284 35.9265 16.3311 36.2194 16.192 36.4806Z" fill="white"/>
<path d="M19.5042 31.2806C19.2266 31.6525 18.8987 31.9253 18.5204 32.0991C18.1469 32.2665 17.7505 32.3114 17.3313 32.2338C16.9109 32.1444 16.4927 31.9122 16.0767 31.5373C15.6667 31.1677 15.3825 30.7561 15.2242 30.3024C15.0599 29.8433 15.0124 29.3876 15.0817 28.9353C15.1558 28.4766 15.3316 28.0613 15.6092 27.6895C15.8868 27.3177 16.2015 27.0759 16.5534 26.9641C16.8993 26.8469 17.2295 26.8174 17.5439 26.8756L17.6435 27.0619L16.9237 26.2683L17.5411 25.4414L21.2313 28.7675L20.5637 29.6618L19.601 28.7941L19.8867 28.8907C19.927 28.97 19.9612 29.0973 19.9892 29.2727C20.0162 29.4364 20.0221 29.6348 20.0071 29.8679C19.9969 30.0947 19.9551 30.3305 19.8817 30.5753C19.8023 30.8147 19.6765 31.0499 19.5042 31.2806ZM18.9973 30.4216C19.1648 30.1972 19.2769 29.9605 19.3337 29.7114C19.3905 29.4623 19.3936 29.2184 19.343 28.9798C19.2914 28.7295 19.1842 28.4935 19.0216 28.2719L18.2996 27.6211C18.0831 27.5117 17.8615 27.4622 17.6351 27.4726C17.4027 27.4776 17.1838 27.5377 16.9785 27.6529C16.7673 27.7628 16.5803 27.9267 16.4176 28.1447C16.2405 28.3819 16.1312 28.648 16.0898 28.9432C16.0484 29.2383 16.0774 29.5325 16.1766 29.8256C16.2806 30.1124 16.4604 30.371 16.7159 30.6013C16.9536 30.8155 17.2159 30.9501 17.503 31.0051C17.79 31.06 18.0665 31.0358 18.3326 30.9325C18.5987 30.8291 18.8202 30.6588 18.9973 30.4216Z" fill="white"/>
<path d="M20.092 22.8682L21.0865 23.901L20.9217 23.7956C20.8183 23.4708 20.7851 23.1434 20.822 22.8134C20.8596 22.4715 20.9359 22.1641 21.051 21.891C21.1667 21.6061 21.2952 21.3929 21.4366 21.2514L22.0981 22.1443C21.8171 22.3918 21.6284 22.6822 21.532 23.0154C21.4413 23.3429 21.4258 23.674 21.4857 24.0085C21.5511 24.3374 21.6859 24.6252 21.8899 24.8717L23.3361 26.6188L22.556 27.3999L19.3882 23.5729L20.092 22.8682Z" fill="white"/>
<path d="M24.5221 18.9923L25.2381 19.9643L25.0985 19.83C25.0323 19.4212 25.086 19.0168 25.2597 18.6168C25.4292 18.21 25.7025 17.8647 26.0797 17.5809C26.4568 17.2971 26.8375 17.1852 27.2217 17.2451C27.6081 17.2934 27.9205 17.502 28.159 17.871L30.0959 20.9907L29.1945 21.6689L27.4666 18.8857C27.3167 18.6594 27.1367 18.5206 26.9267 18.4693C26.7188 18.4064 26.4902 18.4687 26.2409 18.6563C26.0107 18.8295 25.8452 19.0538 25.7442 19.3292C25.6432 19.6046 25.6122 19.9022 25.6513 20.2218C25.6967 20.5367 25.8164 20.8504 26.0105 21.163L27.2385 23.1408L26.3468 23.8119L23.7263 19.5912L24.5221 18.9923Z" fill="white"/>
</svg>
