<svg width="68" height="134" viewBox="0 0 68 134" fill="none" xmlns="http://www.w3.org/2000/svg">
<path d="M68 122.3C68 123.358 68 123.888 67.8908 124.621C67.2265 129.078 62.2888 133.242 57.7833 133.144C57.0424 133.128 56.8135 133.089 56.3557 133.011C42.6436 130.662 29.8905 124.203 19.9167 114.376C7.16426 101.811 -5.01692e-07 84.7695 0 67C5.01692e-07 49.2305 7.16427 32.1888 19.9167 19.6238C29.8905 9.79672 42.6436 3.33758 56.3557 0.989349C56.8135 0.910941 57.0424 0.871737 57.7833 0.855678C62.2888 0.758011 67.2265 4.922 67.8908 9.37938C68 10.1123 68 10.6415 68 11.7L68 67L68 122.3Z" fill="#E9C46A"/>
</svg>
