<svg width="126" height="122" viewBox="0 0 126 122" fill="none" xmlns="http://www.w3.org/2000/svg">
<path d="M63 110.3C63 111.32 63 111.83 62.8895 112.567C62.2213 117.024 57.1924 121.22 52.688 121.079C51.9429 121.056 51.7494 121.021 51.3625 120.95C38.9818 118.697 27.4864 112.881 18.4523 104.134C6.63748 92.6938 -4.64803e-07 77.1782 0 61C4.64803e-07 44.8218 6.63748 29.3062 18.4523 17.8665C27.4864 9.11912 38.9818 3.30277 51.3625 1.04951C51.7494 0.979091 51.9429 0.943881 52.688 0.92062C57.1924 0.78 62.2213 4.97625 62.8895 9.43304C63 10.1703 63 10.6802 63 11.7L63 61L63 110.3Z" fill="#E9C46A"/>
<path d="M27.5048 106.91L26.45 106.077L28.7516 99.4546L28.8591 99.6465L24.7322 102.045L25.2927 100.485L30.4427 97.7321L27.5048 106.91ZM24.2367 104.329L23.3231 103.608L25.4139 96.9417L25.5722 97.1279L19.7536 100.79L18.7835 100.024L27.1011 95.109L24.2367 104.329Z" fill="white"/>
<path d="M22.51 90.5327C22.8114 90.8855 23.0102 91.2722 23.1064 91.6927C23.1974 92.1072 23.1685 92.523 23.0199 92.9402C22.8599 93.3564 22.5654 93.7445 22.1364 94.1045C21.7136 94.4594 21.2737 94.6772 20.8166 94.7579C20.3534 94.8438 19.9143 94.8101 19.4995 94.657C19.0794 94.4978 18.7187 94.2418 18.4173 93.889C18.116 93.5361 17.9441 93.1686 17.9017 92.7865C17.8532 92.4094 17.8847 92.0645 17.9962 91.7516L18.1901 91.6829L17.311 92.2796L16.6407 91.4949L20.4463 88.3013L21.1711 89.1499L20.1783 89.983L20.321 89.7066C20.4031 89.6796 20.5295 89.6674 20.7003 89.6703C20.8598 89.6723 21.0483 89.702 21.2658 89.7597C21.4782 89.8112 21.6934 89.8969 21.9115 90.0167C22.1235 90.1417 22.323 90.3137 22.51 90.5327ZM21.6074 90.8986C21.4255 90.6857 21.222 90.5275 20.9969 90.424C20.7717 90.3205 20.5419 90.2732 20.3074 90.282C20.0616 90.2898 19.8195 90.3573 19.5809 90.4844L18.8363 91.1093C18.694 91.3122 18.6074 91.5311 18.5765 91.7659C18.5395 92.0058 18.557 92.2418 18.6289 92.4739C18.6947 92.711 18.816 92.933 18.9926 93.1399C19.1849 93.3649 19.4167 93.5255 19.6881 93.6215C19.9595 93.7175 20.2425 93.741 20.5374 93.692C20.827 93.6369 21.1036 93.4988 21.3671 93.2777C21.6122 93.072 21.7865 92.8265 21.89 92.5412C21.9935 92.2559 22.0203 91.9671 21.9705 91.6747C21.9207 91.3824 21.7996 91.1236 21.6074 90.8986Z" fill="white"/>
<path d="M13.8519 87.2696L14.841 86.5639L14.7014 86.7036C14.3025 86.7566 13.9165 86.685 13.5436 86.489C13.1638 86.2972 12.8508 85.9999 12.6047 85.5971C12.3585 85.1944 12.2783 84.7947 12.364 84.398C12.4386 83.9986 12.6625 83.6823 13.0356 83.4489L16.1838 81.5588L16.772 82.5213L13.9633 84.2076C13.7343 84.3544 13.5874 84.5359 13.5227 84.7521C13.4469 84.9655 13.4903 85.2054 13.653 85.4716C13.8032 85.7173 14.0074 85.898 14.2656 86.0136C14.5237 86.1292 14.8083 86.1729 15.1193 86.1448C15.4261 86.1099 15.7373 85.9978 16.0528 85.8083L18.0487 84.61L18.6307 85.5623L14.3714 88.1195L13.8519 87.2696Z" fill="white"/>
<path d="M8.15243 81.1284L7.7086 80.1045L9.74021 79.2397L9.19616 77.9845L10.0022 77.6415L10.5462 78.8966L14.2893 77.3034L14.7331 78.3273L10.9901 79.9206L11.3528 80.7573L10.5467 81.1004L10.184 80.2637L8.15243 81.1284Z" fill="white"/>
<path d="M12.3644 71.4058C12.4623 71.7439 12.5003 72.0907 12.4783 72.4462C12.4464 72.7963 12.3413 73.109 12.1628 73.3843L11.4093 73.1119C11.5438 72.8574 11.6311 72.6122 11.671 72.3763C11.7011 72.1349 11.6861 71.9105 11.626 71.703C11.5815 71.5493 11.5211 71.4126 11.4448 71.2929C11.3685 71.1732 11.2769 71.087 11.17 71.0342C11.0532 70.9759 10.9178 70.9686 10.7639 71.0124C10.5946 71.0605 10.4766 71.1564 10.41 71.3001C10.3411 71.4361 10.3014 71.6013 10.2911 71.7955C10.2784 71.982 10.273 72.179 10.2748 72.3865C10.2575 72.8155 10.1634 73.1666 9.99262 73.4397C9.82184 73.7128 9.571 73.8964 9.24011 73.9905C8.98617 74.0626 8.73367 74.0679 8.4826 74.0062C8.22161 73.939 7.98626 73.8021 7.77654 73.5956C7.5646 73.3814 7.40523 73.0898 7.29842 72.721C7.20274 72.3906 7.1594 72.0827 7.16839 71.7974C7.16969 71.5142 7.22931 71.2311 7.34724 70.9481L8.14021 71.1843C8.03406 71.3642 7.97416 71.56 7.96053 71.7718C7.9469 71.9836 7.95849 72.1674 7.9953 72.3233C8.02543 72.4561 8.08138 72.5774 8.16316 72.6873C8.24271 72.7894 8.33593 72.8669 8.44283 72.9197C8.54972 72.9724 8.66089 72.9824 8.77631 72.9496C8.93791 72.9037 9.05316 72.8127 9.12204 72.6767C9.19093 72.5407 9.23167 72.3794 9.24428 72.1928C9.24697 72.0008 9.25462 71.8115 9.26723 71.6249C9.26751 71.367 9.29866 71.1295 9.36068 70.9122C9.42271 70.695 9.52279 70.5085 9.66094 70.3528C9.79685 70.1894 9.99178 70.0717 10.2457 69.9995C10.5304 69.9185 10.816 69.9122 11.1023 69.9806C11.3786 70.0434 11.63 70.1923 11.8563 70.4274C12.0727 70.657 12.2421 70.9831 12.3644 71.4058Z" fill="white"/>
<path d="M3.36603 60.6033L3.32152 59.4882L5.52785 59.4023L5.4733 58.0354L6.34864 58.0014L6.40319 59.3683L10.4681 59.2101L10.5126 60.3252L6.4477 60.4834L6.48407 61.3947L5.60873 61.4287L5.57236 60.5175L3.36603 60.6033Z" fill="white"/>
<path d="M8.01121 54.6193C7.51763 54.5703 7.08343 54.4107 6.70861 54.1404C6.33459 53.8621 6.05297 53.5046 5.86375 53.0678C5.67453 52.631 5.60635 52.1499 5.65921 51.6246C5.71367 51.0833 5.87675 50.6211 6.14847 50.2381C6.42018 49.855 6.76627 49.5718 7.18675 49.3884C7.60722 49.205 8.06424 49.1378 8.55782 49.1867C9.0514 49.2356 9.48998 49.3917 9.87357 49.6548C10.2492 49.9172 10.5316 50.2667 10.7208 50.7036C10.9109 51.1324 10.9786 51.6175 10.9242 52.1587C10.8713 52.6841 10.7166 53.143 10.46 53.5356C10.1962 53.9195 9.85731 54.2115 9.4432 54.4116C9.02192 54.6029 8.5446 54.6722 8.01121 54.6193ZM8.13488 53.5101C8.45332 53.5416 8.7511 53.4988 9.02823 53.3816C9.29739 53.2636 9.51962 53.0927 9.6949 52.8689C9.87099 52.6371 9.97385 52.374 10.0035 52.0795C10.0347 51.769 9.98672 51.4869 9.85949 51.2331C9.73306 50.9714 9.54928 50.7602 9.30814 50.5996C9.05904 50.4383 8.77528 50.3418 8.45684 50.3102C8.1384 50.2786 7.845 50.3179 7.57663 50.4279C7.30031 50.5372 7.0741 50.7077 6.89801 50.9395C6.71477 51.1625 6.60753 51.4292 6.57629 51.7396C6.54586 52.0421 6.59784 52.3246 6.73223 52.5871C6.86742 52.8417 7.05916 53.0537 7.30746 53.223C7.54859 53.3836 7.8244 53.4793 8.13488 53.5101Z" fill="white"/>
<path d="M5.31804 37.9347L5.7433 36.8512L12.7964 39.5729L14.4053 35.4734L15.4465 35.8751L13.4123 41.0582L5.31804 37.9347Z" fill="white"/>
<path d="M18.0255 31.7784C17.7369 32.2677 17.3922 32.6319 16.9911 32.871C16.5832 33.1061 16.1527 33.2219 15.6998 33.2183C15.244 33.2037 14.7946 33.0681 14.3517 32.8113C13.9294 32.5666 13.6083 32.2372 13.3882 31.823C13.1681 31.4087 13.0599 30.9623 13.0635 30.4836C13.0672 30.0049 13.1991 29.545 13.4591 29.104C13.7923 28.5389 14.2348 28.1666 14.7864 27.9871C15.3381 27.8075 15.9432 27.8208 16.6018 28.0268L15.7692 32.2737L15.0641 32.1702L15.7118 28.6621L15.7248 28.9471C15.4477 28.8974 15.1691 28.9209 14.8892 29.0175C14.6024 29.1102 14.3676 29.3116 14.1847 29.6217C14.0303 29.8835 13.9579 30.1559 13.9675 30.4389C13.9702 30.7178 14.0477 30.9801 14.2001 31.2256C14.3525 31.4711 14.5706 31.6761 14.8544 31.8406C15.152 32.0131 15.4516 32.1035 15.7532 32.1119C16.0478 32.1162 16.3239 32.0497 16.5813 31.9123C16.8359 31.764 17.0445 31.552 17.2071 31.2764C17.3168 31.0903 17.3878 30.8911 17.4202 30.6787C17.4566 30.4594 17.4642 30.2418 17.4428 30.0261L18.4213 29.9968C18.4407 30.2947 18.4161 30.604 18.3476 30.925C18.2832 31.239 18.1758 31.5235 18.0255 31.7784Z" fill="white"/>
<path d="M22.3742 25.7673C22.0785 26.1248 21.7306 26.3884 21.3306 26.5581C20.9357 26.7216 20.5179 26.7685 20.0772 26.6989C19.6354 26.618 19.1972 26.4009 18.7627 26.0476C18.3344 25.6994 18.039 25.3098 17.8765 24.8787C17.7078 24.4425 17.6621 24.0084 17.7393 23.5763C17.8216 23.138 18.0106 22.7401 18.3064 22.3826C18.6022 22.0251 18.9359 21.7912 19.3075 21.6809C19.6729 21.5655 20.0208 21.534 20.3514 21.5863L20.4544 21.7629L19.7039 21.0135L20.3618 20.2183L24.2165 23.3524L23.5051 24.2123L22.4995 23.3947L22.7995 23.4839C22.8411 23.559 22.8759 23.6801 22.9038 23.8472C22.9307 24.003 22.9351 24.1922 22.9171 24.4147C22.9042 24.631 22.858 24.8563 22.7784 25.0906C22.6925 25.3198 22.5578 25.5454 22.3742 25.7673ZM21.8485 24.9532C22.027 24.7375 22.1473 24.5105 22.2094 24.2723C22.2715 24.0341 22.2771 23.8015 22.2261 23.5745C22.174 23.3363 22.0634 23.1123 21.8943 22.9026L21.1401 22.2894C20.9131 22.1873 20.6803 22.1424 20.4418 22.1546C20.197 22.1618 19.966 22.2215 19.7487 22.3335C19.5252 22.4405 19.3268 22.5987 19.1534 22.8083C18.9647 23.0364 18.8472 23.2914 18.8008 23.5733C18.7545 23.8552 18.7821 24.1355 18.8839 24.4141C18.9907 24.6865 19.1776 24.9313 19.4445 25.1483C19.6928 25.3501 19.9678 25.4758 20.2695 25.5252C20.5713 25.5747 20.8627 25.5487 21.1438 25.4473C21.4249 25.346 21.6599 25.1813 21.8485 24.9532Z" fill="white"/>
<path d="M24.0375 16.7663L25.0918 17.7544L24.9174 17.6532C24.8068 17.3436 24.7702 17.0318 24.8076 16.7178C24.8456 16.3926 24.9247 16.1003 25.0449 15.8409C25.1657 15.5703 25.3003 15.368 25.4488 15.234L26.1511 16.0872C25.8557 16.3215 25.658 16.5969 25.5578 16.9136C25.4636 17.2249 25.4488 17.54 25.5136 17.8588C25.5842 18.1722 25.7278 18.4467 25.9442 18.6824L27.4785 20.3526L26.659 21.0923L23.2981 17.4337L24.0375 16.7663Z" fill="white"/>
<path d="M29.605 12.393L30.3726 13.3368L30.2238 13.2057C30.1474 12.813 30.1968 12.4268 30.3722 12.0471C30.543 11.6607 30.8238 11.3352 31.2146 11.0704C31.6053 10.8057 32.0027 10.7055 32.4067 10.77C32.8129 10.8233 33.1441 11.0289 33.4006 11.3866L35.4855 14.4093L34.5517 15.042L32.6916 12.3453C32.5305 12.1259 32.3394 11.9897 32.1182 11.9366C31.899 11.8725 31.6603 11.928 31.402 12.103C31.1636 12.2646 30.9938 12.4763 30.8926 12.7381C30.7913 12.9999 30.7639 13.2843 30.8103 13.591C30.8633 13.8933 30.9943 14.1959 31.2033 14.4989L32.5251 16.4152L31.6012 17.0412L28.7804 12.9517L29.605 12.393Z" fill="white"/>
</svg>
