<svg width="682" height="79" viewBox="0 0 682 79" fill="none" xmlns="http://www.w3.org/2000/svg">
<path d="M2.01195 6.34689C2.13249 5.24892 3.1203 4.45656 4.21827 4.57711L22.1108 6.54153C23.2087 6.66207 24.0011 7.64988 23.8805 8.74785C23.76 9.84582 22.7722 10.6382 21.6742 10.5176L5.76979 8.77149L4.02364 24.6759C3.90309 25.7739 2.91528 26.5662 1.81731 26.4457C0.719341 26.3252 -0.0730189 25.3374 0.0475275 24.2394L2.01195 6.34689ZM106.5 72.5652L106.394 70.568L106.5 72.5652ZM198 6.56516L198.025 8.565L198 6.56516ZM386 6.56516L386.215 8.55361L386 6.56516ZM4 6.56516C5.56011 5.31374 5.56008 5.3137 5.56005 5.31366C5.56004 5.31366 5.56002 5.31363 5.56001 5.31362C5.55999 5.31359 5.55999 5.31359 5.55999 5.3136C5.56001 5.31362 5.56008 5.3137 5.5602 5.31386C5.56045 5.31416 5.56091 5.31474 5.56158 5.31558C5.56293 5.31725 5.56513 5.31999 5.56818 5.32377C5.57428 5.33135 5.58377 5.34313 5.59663 5.35904C5.62234 5.39087 5.66152 5.43924 5.71391 5.50361C5.81869 5.63234 5.97632 5.82503 6.18482 6.07728C6.60185 6.58179 7.2223 7.32445 8.03045 8.27005L6.51005 9.56944L4.98966 10.8688C4.16647 9.90561 3.5319 9.14613 3.10173 8.62571C2.88664 8.36549 2.72262 8.16502 2.61167 8.0287C2.55619 7.96054 2.51397 7.90842 2.48526 7.87288C2.4709 7.85511 2.45993 7.84149 2.45235 7.83209C2.44857 7.82739 2.44564 7.82374 2.44356 7.82115C2.44252 7.81986 2.44169 7.81883 2.44108 7.81807C2.44078 7.81769 2.44053 7.81738 2.44033 7.81713C2.44023 7.81701 2.44014 7.8169 2.44007 7.81681C2.44003 7.81676 2.43999 7.81671 2.43997 7.81669C2.43993 7.81664 2.43989 7.81659 4 6.56516ZM11.6892 15.4396L13.1697 14.0949C14.7335 15.8168 16.5126 17.7336 18.483 19.7919L17.0383 21.1749L15.5936 22.558C13.5972 20.4725 11.7942 18.5299 10.2087 16.7842L11.6892 15.4396ZM22.5424 26.777L23.9506 25.3568C25.7224 27.1137 27.597 28.9279 29.563 30.7743L28.1938 32.2322L26.8246 33.69C24.8305 31.8172 22.9299 29.9778 21.1342 28.1972L22.5424 26.777ZM34.0019 37.5322L35.3281 36.0351C37.2335 37.7231 39.2033 39.4175 41.2294 41.1006L39.9514 42.6391L38.6734 44.1775C36.6126 42.4655 34.6106 40.7433 32.6757 39.0293L34.0019 37.5322ZM46.0779 47.551L47.3005 45.9682C49.3394 47.5432 51.422 49.0912 53.5413 50.5965L52.3831 52.227L51.2249 53.8576C49.059 52.3191 46.9333 50.739 44.8552 49.1337L46.0779 47.551ZM58.884 56.6277L59.9657 54.9454C62.1453 56.3469 64.3533 57.6897 66.5827 58.9586L65.5934 60.6967L64.604 62.4349C62.3074 61.1277 60.0378 59.7473 57.8024 58.31L58.884 56.6277ZM72.5356 64.367L73.4114 62.569C75.7446 63.7055 78.091 64.7463 80.4429 65.6752L79.7083 67.5354L78.9736 69.3956C76.518 68.4257 74.0773 67.3427 71.6597 66.165L72.5356 64.367ZM87.1345 70.084L87.6908 68.1629C90.1723 68.8815 92.6485 69.4567 95.1111 69.8705L94.7796 71.8428L94.4482 73.8152C91.8209 73.3737 89.1943 72.7626 86.5781 72.005L87.1345 70.084ZM102.578 72.6147L102.631 70.6154C103.892 70.6489 105.147 70.6339 106.394 70.568L106.5 72.5652L106.606 74.5624C105.249 74.6341 103.888 74.6502 102.525 74.614L102.578 72.6147ZM106.5 72.5652L106.394 70.568C107.767 70.4954 109.096 70.3612 110.383 70.1698L110.678 72.148L110.972 74.1263C109.557 74.3366 108.102 74.4833 106.606 74.5624L106.5 72.5652ZM118.801 70.0807L118.11 68.2038C120.647 67.2701 123.026 66.0901 125.279 64.7052L126.326 66.4091L127.374 68.113C124.912 69.6258 122.295 70.9256 119.492 71.9576L118.801 70.0807ZM133.069 61.4318L131.761 59.9192C133.786 58.1671 135.718 56.2526 137.588 54.216L139.061 55.5685L140.534 56.9209C138.582 59.0476 136.54 61.0735 134.378 62.9444L133.069 61.4318ZM144.488 49.1715L142.923 47.9274C144.632 45.7752 146.304 43.5572 147.972 41.3078L149.578 42.4988L151.185 43.6897C149.507 45.9536 147.805 48.2124 146.054 50.4156L144.488 49.1715ZM154.559 35.7453L152.953 34.5531C154.637 32.2848 156.345 30.0277 158.099 27.8327L159.661 29.0815L161.224 30.3302C159.512 32.4716 157.837 34.6858 156.165 36.9376L154.559 35.7453ZM165.119 22.709L163.654 21.3468C165.626 19.227 167.69 17.2174 169.877 15.3746L171.165 16.9041L172.454 18.4336C170.414 20.1528 168.467 22.0458 166.583 24.0712L165.119 22.709ZM177.993 12.0466L176.985 10.3195C179.482 8.86103 182.139 7.6315 184.986 6.68788L185.615 8.58638L186.245 10.4849C183.679 11.3349 181.276 12.4455 179.002 13.7737L177.993 12.0466ZM193.809 6.8162L193.592 4.82795C195.013 4.6733 196.473 4.58445 197.975 4.56532L198 6.56516L198.025 8.565C196.648 8.58254 195.316 8.66391 194.025 8.80445L193.809 6.8162ZM198 6.56516L197.975 4.56532C199.511 4.54576 201.005 4.6016 202.459 4.72853L202.285 6.72096L202.111 8.71338C200.792 8.59827 199.432 8.5471 198.025 8.565L198 6.56516ZM210.68 8.38703L211.286 6.48092C214.204 7.40787 216.928 8.64213 219.493 10.1212L218.493 11.8536L217.494 13.5861C215.16 12.2397 212.698 11.1265 210.075 10.2931L210.68 8.38703ZM225.484 16.7892L226.769 15.2566C229.002 17.1289 231.113 19.1761 233.133 21.3382L231.672 22.7037L230.211 24.0692C228.278 22.0008 226.285 20.0703 224.199 18.3219L225.484 16.7892ZM237.262 29.1974L238.821 27.9441C240.618 30.1793 242.369 32.4782 244.097 34.7875L242.496 35.9856L240.894 37.1838C239.178 34.8902 237.459 32.6334 235.704 30.4507L237.262 29.1974ZM247.609 42.8626L249.211 41.6648C250.926 43.9574 252.644 46.2153 254.399 48.4011L252.839 49.6532L251.28 50.9052C249.483 48.6676 247.734 46.3682 246.008 44.0603L247.609 42.8626ZM258.421 56.1537L259.885 54.7909C261.813 56.8621 263.803 58.7989 265.884 60.5574L264.593 62.0851L263.303 63.6129C261.076 61.732 258.972 59.6802 256.957 57.5164L258.421 56.1537ZM271.559 67.058L272.57 65.3324C274.898 66.6967 277.352 67.8321 279.967 68.6926L279.342 70.5924L278.717 72.4921C275.813 71.5364 273.1 70.2797 270.547 68.7835L271.559 67.058ZM287.717 72.3553L287.916 70.3652C289.234 70.4968 290.595 70.5652 292 70.5652V72.5652V74.5652C290.465 74.5652 288.972 74.4905 287.518 74.3454L287.717 72.3553ZM292 72.5652V70.5652C293.401 70.5652 294.757 70.503 296.073 70.383L296.255 72.3747L296.436 74.3665C294.997 74.4977 293.519 74.5652 292 74.5652V72.5652ZM304.606 70.7641L304.028 68.8495C306.667 68.0526 309.142 66.9976 311.487 65.7269L312.44 67.4854L313.393 69.2438C310.824 70.6357 308.099 71.7986 305.184 72.6788L304.606 70.7641ZM319.522 62.7862L318.283 61.2158C320.413 59.5368 322.446 57.6803 324.415 55.6874L325.838 57.0934L327.26 58.4993C325.197 60.5864 323.042 62.5574 320.76 64.3566L319.522 62.7862ZM331.56 50.7928L330.033 49.501C331.827 47.3805 333.585 45.1822 335.34 42.9413L336.915 44.1746L338.489 45.4079C336.72 47.6672 334.927 49.9095 333.087 52.0846L331.56 50.7928ZM342.135 37.4519L340.557 36.223C342.309 33.9745 344.085 31.7255 345.911 29.525L347.45 30.802L348.989 32.0789C347.203 34.2327 345.455 36.4444 343.713 38.6807L342.135 37.4519ZM353.078 24.4192L351.627 23.0428C353.631 20.9296 355.723 18.9062 357.933 17.0222L359.231 18.5442L360.528 20.0662C358.445 21.8422 356.455 23.7647 354.529 25.7956L353.078 24.4192ZM366.07 13.4942L365.009 11.7993C367.479 10.2518 370.097 8.89232 372.891 7.7696L373.637 9.62543L374.382 11.4813C371.824 12.5091 369.417 13.7576 367.132 15.1891L366.07 13.4942ZM381.791 7.20631L381.402 5.24448C382.823 4.96276 384.283 4.73889 385.785 4.57672L386 6.56516L386.215 8.55361C384.828 8.70328 383.484 8.9095 382.179 9.16813L381.791 7.20631ZM386 6.56516L385.785 4.57672C387.21 4.42289 388.623 4.34023 390.025 4.32483L390.047 6.3247L390.069 8.32458C388.795 8.33859 387.511 8.41369 386.215 8.55361L386 6.56516ZM398.09 7.00338L398.442 5.03467C401.205 5.52925 403.912 6.26926 406.562 7.21684L405.889 9.10011L405.216 10.9834C402.756 10.1042 400.265 9.42445 397.737 8.97209L398.09 7.00338ZM413.29 12.3484L414.211 10.573C416.637 11.8316 419.017 13.2466 421.35 14.7862L420.248 16.4556L419.147 18.1249C416.916 16.6528 414.657 15.3106 412.369 14.1238L413.29 12.3484ZM426.816 21.1927L428.047 19.6161C430.184 21.2842 432.285 23.0401 434.35 24.8577L433.029 26.3591L431.708 27.8606C429.692 26.0871 427.652 24.3824 425.586 22.7694L426.816 21.1927ZM438.983 31.8417L440.367 30.3979C442.329 32.2781 444.26 34.1956 446.161 36.1259L444.736 37.5294L443.311 38.9328C441.43 37.0233 439.527 35.1335 437.599 33.2855L438.983 31.8417ZM450.358 43.3419L451.805 41.9616C453.692 43.9395 455.553 45.9115 457.383 47.8437L455.931 49.219L454.479 50.5942C452.643 48.6559 450.79 46.6933 448.911 44.7222L450.358 43.3419ZM461.514 55.0655L462.951 53.6744C464.87 55.6568 466.756 57.5659 468.614 59.3733L467.219 60.8068L465.825 62.2402C463.929 60.3961 462.013 58.4568 460.077 56.4566L461.514 55.0655ZM473.171 66.3004L474.479 64.7877C476.593 66.6154 478.656 68.2465 480.675 69.639L479.54 71.2854L478.404 72.9318C476.236 71.4367 474.056 69.7102 471.863 67.8132L473.171 66.3004ZM486.579 75.2253L487.345 73.3778C489.81 74.4 492.156 74.9245 494.41 74.9122L494.421 76.9122L494.432 78.9121C491.534 78.928 488.656 78.2518 485.813 77.0728L486.579 75.2253ZM502.151 74.8576L501.189 73.1038C502.192 72.5544 503.204 71.8663 504.227 71.0224L505.5 72.5652L506.773 74.1079C505.573 75.0974 504.354 75.9308 503.112 76.6113L502.151 74.8576ZM505.5 72.5652L504.227 71.0224C505.357 70.09 506.47 69.1723 507.565 68.2684L508.838 69.8111L510.111 71.3539C509.015 72.2578 507.903 73.1754 506.773 74.1079L505.5 72.5652ZM515.508 64.3089L514.235 62.7661C516.519 60.8815 518.735 59.0534 520.897 57.27L522.17 58.8127L523.442 60.3555C521.281 62.1389 519.065 63.967 516.78 65.8516L515.508 64.3089ZM528.836 53.3131L527.563 51.7704C529.826 49.903 532.043 48.0748 534.23 46.2703L535.503 47.8131L536.775 49.3558C534.588 51.1603 532.372 52.9885 530.109 54.8559L528.836 53.3131ZM542.168 42.3144L540.895 40.7717C542.007 39.8545 543.118 38.9375 544.227 38.0224C545.337 37.1068 546.447 36.1909 547.56 35.2732L548.832 36.8159L550.105 38.3587C548.993 39.276 547.882 40.1927 546.773 41.1079C545.663 42.0238 544.553 42.9391 543.44 43.8571L542.168 42.3144ZM555.497 31.3172L554.225 29.7745C556.412 27.97 558.628 26.1418 560.891 24.2744L562.164 25.8172L563.437 27.3599C561.173 29.2273 558.958 31.0555 556.77 32.86L555.497 31.3172ZM568.83 20.3176L567.558 18.7749C569.719 16.9914 571.935 15.1633 574.22 13.2787L575.492 14.8215L576.765 16.3642C574.481 18.2488 572.265 20.077 570.103 21.8604L568.83 20.3176ZM582.162 9.31918L580.889 7.77644C581.985 6.87253 583.097 5.95489 584.227 5.02242L585.5 6.56516L586.773 8.10791C585.642 9.04038 584.53 9.95803 583.435 10.8619L582.162 9.31918ZM585.5 6.56516L584.227 5.02242C585.358 4.08966 586.533 3.29234 587.75 2.6258L588.711 4.37986L589.672 6.13392C588.683 6.67555 587.716 7.32999 586.773 8.10791L585.5 6.56516ZM596.077 2.11094L595.874 0.121223C598.591 -0.155309 601.379 0.0507075 604.196 0.643093L603.784 2.60027L603.373 4.55745C600.891 4.03553 598.522 3.87245 596.279 4.10066L596.077 2.11094ZM611.156 4.99294L611.944 3.15496C614.315 4.17191 616.701 5.4062 619.086 6.81489L618.069 8.5369L617.051 10.2589C614.789 8.92277 612.556 7.77006 610.367 6.83091L611.156 4.99294ZM624.565 12.7948L625.73 11.1692C627.823 12.6696 629.91 14.2809 631.98 15.9769L630.713 17.5239L629.445 19.0709C627.434 17.4227 625.415 15.8647 623.399 14.4203L624.565 12.7948ZM636.596 22.605L637.939 21.1231C639.866 22.8691 641.769 24.6711 643.64 26.5072L642.239 27.9345L640.838 29.3618C639.001 27.5592 637.137 25.794 635.253 24.087L636.596 22.605ZM647.686 33.4661L649.133 32.0858C650.953 33.994 652.73 35.9162 654.455 37.83L652.969 39.1689L651.484 40.5078C649.782 38.6196 648.03 36.7251 646.239 34.8464L647.686 33.4661ZM658.086 44.9916L659.604 43.6896C661.359 45.7359 663.039 47.7455 664.632 49.6894L663.086 50.9572L661.539 52.225C659.963 50.3022 658.301 48.3154 656.568 46.2935L658.086 44.9916ZM667.951 57.0218L669.524 55.7864C671.283 58.0255 672.879 60.109 674.287 61.9781L672.689 63.1812L671.091 64.3843C669.699 62.5351 668.119 60.4732 666.378 58.2573L667.951 57.0218ZM677.299 69.4448L678.924 68.2786C679.641 69.2776 680.196 70.0643 680.572 70.6025C680.761 70.8716 680.904 71.0787 681.001 71.2191C681.05 71.2894 681.087 71.3429 681.112 71.3793C681.124 71.3975 681.134 71.4114 681.14 71.4209C681.144 71.4256 681.146 71.4293 681.148 71.4319C681.149 71.4331 681.149 71.4341 681.15 71.4349C681.15 71.4352 681.15 71.4355 681.151 71.4358C681.151 71.4359 681.151 71.436 681.151 71.436C681.151 71.4361 681.151 71.4361 681.151 71.4361C681.151 71.4362 681.151 71.4362 679.5 72.5652C677.849 73.6941 677.849 73.6941 677.849 73.6942C677.849 73.6942 677.849 73.6942 677.849 73.6942C677.849 73.6942 677.849 73.6942 677.849 73.6942C677.849 73.6941 677.849 73.694 677.849 73.6938C677.849 73.6934 677.848 73.6928 677.848 73.6918C677.846 73.69 677.844 73.687 677.841 73.683C677.836 73.6749 677.827 73.6624 677.816 73.6456C677.793 73.6121 677.758 73.5614 677.711 73.4941C677.618 73.3595 677.479 73.1585 677.295 72.8956C676.927 72.3697 676.381 71.5962 675.674 70.611L677.299 69.4448Z" fill="white"/>
</svg>
