<svg width="683" height="80" viewBox="0 0 683 80" fill="none" xmlns="http://www.w3.org/2000/svg">
<path d="M104.5 6.99996L104.394 8.99717L104.5 6.99996ZM196 73L196.025 71.0001L196 73ZM384 73L384.215 71.0115L384 73ZM679.466 6.63087C679.262 5.54527 678.217 4.83047 677.131 5.03431L659.44 8.35611C658.354 8.55996 657.64 9.60525 657.844 10.6909C658.047 11.7764 659.093 12.4913 660.178 12.2874L675.903 9.3347L678.856 25.0599C679.06 26.1455 680.105 26.8603 681.191 26.6564C682.276 26.4526 682.991 25.4073 682.787 24.3217L679.466 6.63087ZM2 73C3.56011 74.2514 3.56008 74.2514 3.56005 74.2515C3.56004 74.2515 3.56002 74.2515 3.56001 74.2515C3.55999 74.2515 3.55999 74.2515 3.55999 74.2515C3.56001 74.2515 3.56008 74.2514 3.5602 74.2513C3.56045 74.251 3.56091 74.2504 3.56158 74.2495C3.56293 74.2479 3.56513 74.2451 3.56818 74.2414C3.57428 74.2338 3.58377 74.222 3.59663 74.2061C3.62234 74.1743 3.66152 74.1259 3.71391 74.0615C3.81869 73.9328 3.97632 73.7401 4.18482 73.4878C4.60185 72.9833 5.2223 72.2407 6.03045 71.2951L4.51005 69.9957L2.98966 68.6963C2.16647 69.6595 1.5319 70.419 1.10173 70.9394C0.886636 71.1996 0.722625 71.4001 0.611667 71.5364C0.556188 71.6046 0.51397 71.6567 0.485259 71.6922C0.470904 71.71 0.459925 71.7236 0.452354 71.733C0.448569 71.7377 0.445635 71.7414 0.443557 71.744C0.442518 71.7453 0.441693 71.7463 0.441083 71.7471C0.440777 71.7474 0.440525 71.7477 0.440327 71.748C0.440228 71.7481 0.440143 71.7482 0.440071 71.7483C0.440034 71.7484 0.43999 71.7484 0.439972 71.7484C0.439932 71.7485 0.439894 71.7485 2 73ZM9.68921 64.1256L11.1697 65.4702C12.7335 63.7484 14.5126 61.8315 16.483 59.7732L15.0383 58.3902L13.5936 57.0072C11.5972 59.0926 9.79417 61.0352 8.20868 62.7809L9.68921 64.1256ZM20.5424 52.7881L21.9506 54.2083C23.7224 52.4514 25.597 50.6372 27.563 48.7908L26.1938 47.333L24.8246 45.8751C22.8305 47.7479 20.9299 49.5873 19.1342 51.3679L20.5424 52.7881ZM32.0019 42.0329L33.3281 43.53C35.2335 41.8421 37.2033 40.1476 39.2294 38.4645L37.9514 36.9261L36.6734 35.3876C34.6126 37.0996 32.6106 38.8218 30.6757 40.5359L32.0019 42.0329ZM44.0779 32.0141L45.3005 33.5969C47.3394 32.0219 49.422 30.474 51.5413 28.9686L50.3831 27.3381L49.2249 25.7076C47.059 27.246 44.9333 28.8261 42.8552 30.4314L44.0779 32.0141ZM56.884 22.9374L57.9657 24.6197C60.1453 23.2182 62.3533 21.8754 64.5827 20.6066L63.5934 18.8684L62.604 17.1302C60.3074 18.4374 58.0378 19.8179 55.8024 21.2551L56.884 22.9374ZM70.5356 15.1982L71.4114 16.9962C73.7446 15.8596 76.091 14.8188 78.4429 13.8899L77.7083 12.0298L76.9736 10.1696C74.518 11.1394 72.0773 12.2224 69.6597 13.4001L70.5356 15.1982ZM85.1345 9.48117L85.6908 11.4022C88.1723 10.6836 90.6485 10.1085 93.1111 9.69465L92.7796 7.7223L92.4482 5.74996C89.8209 6.19146 87.1943 6.80248 84.5781 7.5601L85.1345 9.48117ZM100.578 6.95044L100.631 8.94973C101.892 8.91623 103.147 8.93123 104.394 8.99717L104.5 6.99996L104.606 5.00275C103.249 4.93103 101.888 4.91493 100.525 4.95115L100.578 6.95044ZM104.5 6.99996L104.394 8.99717C105.767 9.06973 107.096 9.20397 108.383 9.39537L108.678 7.4171L108.972 5.43883C107.557 5.22856 106.102 5.08186 104.606 5.00275L104.5 6.99996ZM116.801 9.48442L116.11 11.3613C118.647 12.2951 121.026 13.4751 123.279 14.8599L124.326 13.156L125.374 11.4521C122.912 9.93928 120.295 8.63953 117.492 7.60756L116.801 9.48442ZM131.069 18.1333L129.761 19.6459C131.786 21.398 133.718 23.3125 135.588 25.3491L137.061 23.9966L138.534 22.6442C136.582 20.5175 134.54 18.4916 132.378 16.6207L131.069 18.1333ZM142.488 30.3936L140.923 31.6377C142.632 33.7899 144.304 36.008 145.972 38.2573L147.578 37.0664L149.185 35.8754C147.507 33.6115 145.805 31.3527 144.054 29.1496L142.488 30.3936ZM152.559 43.8198L150.953 45.012C152.637 47.2804 154.345 49.5375 156.099 51.7324L157.661 50.4837L159.224 49.235C157.512 47.0935 155.837 44.8793 154.165 42.6275L152.559 43.8198ZM163.119 56.8561L161.654 58.2183C163.626 60.3381 165.69 62.3477 167.877 64.1906L169.165 62.6611L170.454 61.1316C168.414 59.4123 166.467 57.5193 164.583 55.4939L163.119 56.8561ZM175.993 67.5185L174.985 69.2456C177.482 70.7041 180.139 71.9336 182.986 72.8772L183.615 70.9787L184.245 69.0802C181.679 68.2302 179.276 67.1196 177.002 65.7914L175.993 67.5185ZM191.809 72.7489L191.592 74.7372C193.013 74.8918 194.473 74.9807 195.975 74.9998L196 73L196.025 71.0001C194.648 70.9826 193.316 70.9012 192.025 70.7607L191.809 72.7489ZM196 73L195.975 74.9998C197.511 75.0194 199.005 74.9635 200.459 74.8366L200.285 72.8442L200.111 70.8517C198.792 70.9669 197.432 71.018 196.025 71.0001L196 73ZM208.68 71.1781L209.286 73.0842C212.204 72.1573 214.928 70.923 217.493 69.444L216.493 67.7115L215.494 65.979C213.16 67.3254 210.698 68.4386 208.075 69.272L208.68 71.1781ZM223.484 62.7759L224.769 64.3086C227.002 62.4362 229.113 60.389 231.133 58.2269L229.672 56.8614L228.211 55.496C226.278 57.5643 224.285 59.4948 222.199 61.2433L223.484 62.7759ZM235.262 50.3677L236.821 51.621C238.618 49.3858 240.369 47.0869 242.097 44.7776L240.496 43.5795L238.894 42.3814C237.178 44.6749 235.459 46.9317 233.704 49.1145L235.262 50.3677ZM245.609 36.7026L247.211 37.9004C248.926 35.6077 250.644 33.3499 252.399 31.164L250.839 29.9119L249.28 28.6599C247.483 30.8975 245.734 33.1969 244.008 35.5048L245.609 36.7026ZM256.421 23.4115L257.885 24.7742C259.813 22.703 261.803 20.7662 263.884 19.0077L262.593 17.48L261.303 15.9523C259.076 17.8331 256.972 19.885 254.957 22.0487L256.421 23.4115ZM269.559 12.5071L270.57 14.2327C272.898 12.8684 275.352 11.733 277.967 10.8725L277.342 8.97277L276.717 7.07302C273.813 8.02871 271.1 9.28547 268.547 10.7816L269.559 12.5071ZM285.717 7.20983L285.916 9.19994C287.234 9.06832 288.595 8.99996 290 8.99996V6.99996V4.99996C288.465 4.99996 286.972 5.07466 285.518 5.21972L285.717 7.20983ZM290 6.99996V8.99996C291.401 8.99996 292.757 9.06215 294.073 9.18212L294.255 7.19039L294.436 5.19865C292.997 5.06742 291.519 4.99996 290 4.99996V6.99996ZM302.606 8.80098L302.028 10.7156C304.667 11.5126 307.142 12.5675 309.487 13.8382L310.44 12.0798L311.393 10.3213C308.824 8.92944 306.099 7.76654 303.184 6.88637L302.606 8.80098ZM317.522 16.7789L316.283 18.3494C318.413 20.0283 320.446 21.8848 322.415 23.8777L323.838 22.4718L325.26 21.0658C323.197 18.9787 321.042 17.0077 318.76 15.2085L317.522 16.7789ZM329.56 28.7724L328.033 30.0642C329.827 32.1846 331.585 34.3829 333.34 36.6238L334.915 35.3905L336.489 34.1572C334.72 31.8979 332.927 29.6556 331.087 27.4806L329.56 28.7724ZM340.135 42.1133L338.557 43.3421C340.309 45.5906 342.085 47.8396 343.911 50.0401L345.45 48.7632L346.989 47.4862C345.203 45.3324 343.455 43.1207 341.713 40.8844L340.135 42.1133ZM351.078 55.1459L349.627 56.5223C351.631 58.6355 353.723 60.659 355.933 62.5429L357.231 61.0209L358.528 59.4989C356.445 57.723 354.455 55.8004 352.529 53.7695L351.078 55.1459ZM364.07 66.0709L363.009 67.7658C365.479 69.3133 368.097 70.6728 370.891 71.7955L371.637 69.9397L372.382 68.0839C369.824 67.0561 367.417 65.8075 365.132 64.376L364.07 66.0709ZM379.791 72.3588L379.402 74.3206C380.823 74.6024 382.283 74.8262 383.785 74.9884L384 73L384.215 71.0115C382.828 70.8618 381.484 70.6556 380.179 70.397L379.791 72.3588ZM384 73L383.785 74.9884C385.21 75.1422 386.623 75.2249 388.025 75.2403L388.047 73.2404L388.069 71.2405C386.795 71.2265 385.511 71.1514 384.215 71.0115L384 73ZM396.09 72.5617L396.442 74.5305C399.205 74.0359 401.912 73.2959 404.562 72.3483L403.889 70.465L403.216 68.5817C400.756 69.4609 398.265 70.1407 395.737 70.593L396.09 72.5617ZM411.29 67.2167L412.211 68.9921C414.637 67.7335 417.017 66.3185 419.35 64.7789L418.248 63.1096L417.147 61.4402C414.916 62.9124 412.657 64.2546 410.369 65.4414L411.29 67.2167ZM424.816 58.3724L426.047 59.949C428.184 58.281 430.285 56.5251 432.35 54.7074L431.029 53.206L429.708 51.7045C427.692 53.478 425.652 55.1827 423.586 56.7957L424.816 58.3724ZM436.983 47.7234L438.367 49.1673C440.329 47.2871 442.26 45.3696 444.161 43.4392L442.736 42.0358L441.311 40.6323C439.43 42.5419 437.527 44.4316 435.599 46.2796L436.983 47.7234ZM448.358 36.2232L449.805 37.6035C451.692 35.6257 453.553 33.6536 455.383 31.7214L453.931 30.3462L452.479 28.9709C450.643 30.9093 448.79 32.8718 446.911 34.8429L448.358 36.2232ZM459.514 24.4996L460.951 25.8907C462.87 23.9083 464.756 21.9992 466.614 20.1918L465.219 18.7584L463.825 17.3249C461.929 19.169 460.013 21.1083 458.077 23.1085L459.514 24.4996ZM471.171 13.2647L472.479 14.7775C474.593 12.9497 476.656 11.3186 478.675 9.92613L477.54 8.27973L476.404 6.63332C474.236 8.12847 472.056 9.85495 469.863 11.752L471.171 13.2647ZM484.579 4.33985L485.345 6.18734C487.81 5.16513 490.156 4.64058 492.41 4.65292L492.421 2.65295L492.432 0.652983C489.534 0.637112 486.656 1.31337 483.813 2.49237L484.579 4.33985ZM500.151 4.70754L499.189 6.4613C500.192 7.01074 501.204 7.69886 502.227 8.54271L503.5 6.99996L504.773 5.45721C503.573 4.46774 502.354 3.63436 501.112 2.95378L500.151 4.70754ZM503.5 6.99996L502.227 8.54271C503.357 9.47517 504.47 10.3928 505.565 11.2967L506.838 9.75398L508.111 8.21124C507.015 7.30733 505.903 6.38969 504.773 5.45721L503.5 6.99996ZM513.508 15.2563L512.235 16.799C514.519 18.6836 516.735 20.5118 518.897 22.2952L520.17 20.7524L521.442 19.2097C519.281 17.4262 517.065 15.5981 514.78 13.7135L513.508 15.2563ZM526.836 26.252L525.563 27.7947C527.826 29.6621 530.043 31.4903 532.23 33.2948L533.503 31.752L534.775 30.2093C532.588 28.4048 530.372 26.5766 528.109 24.7092L526.836 26.252ZM540.168 37.2507L538.895 38.7935C540.007 39.7107 541.118 40.6277 542.227 41.5427C543.337 42.4583 544.447 43.3742 545.56 44.2919L546.832 42.7492L548.105 41.2064C546.993 40.2891 545.882 39.3724 544.773 38.4572C543.663 37.5413 542.553 36.626 541.44 35.708L540.168 37.2507ZM553.497 48.2479L552.225 49.7906C554.412 51.5951 556.628 53.4233 558.891 55.2907L560.164 53.7479L561.437 52.2052C559.173 50.3378 556.958 48.5096 554.77 46.7051L553.497 48.2479ZM566.83 59.2475L565.558 60.7903C567.719 62.5737 569.935 64.4018 572.22 66.2864L573.492 64.7437L574.765 63.2009C572.481 61.3163 570.265 59.4882 568.103 57.7048L566.83 59.2475ZM580.162 70.2459L578.889 71.7887C579.985 72.6926 581.097 73.6102 582.227 74.5427L583.5 73L584.773 71.4572C583.642 70.5247 582.53 69.6071 581.435 68.7032L580.162 70.2459ZM583.5 73L582.227 74.5427C583.358 75.4755 584.533 76.2728 585.75 76.9393L586.711 75.1853L587.672 73.4312C586.683 72.8896 585.716 72.2351 584.773 71.4572L583.5 73ZM594.077 77.4542L593.874 79.4439C596.591 79.7204 599.379 79.5144 602.196 78.922L601.784 76.9649L601.373 75.0077C598.891 75.5296 596.522 75.6927 594.279 75.4645L594.077 77.4542ZM609.156 74.5722L609.944 76.4102C612.315 75.3932 614.701 74.1589 617.086 72.7502L616.069 71.0282L615.051 69.3062C612.789 70.6424 610.556 71.7951 608.367 72.7342L609.156 74.5722ZM622.565 66.7704L623.73 68.396C625.823 66.8955 627.91 65.2842 629.98 63.5883L628.713 62.0413L627.445 60.4942C625.434 62.1424 623.415 63.7004 621.399 65.1448L622.565 66.7704ZM634.596 56.9601L635.939 58.4421C637.866 56.696 639.769 54.894 641.64 53.0579L640.239 51.6306L638.838 50.2033C637.001 52.0059 635.137 53.7711 633.253 55.4781L634.596 56.9601ZM645.686 46.099L647.133 47.4793C648.953 45.5711 650.73 43.6489 652.455 41.7351L650.969 40.3962L649.484 39.0573C647.782 40.9455 646.03 42.84 644.239 44.7188L645.686 46.099ZM656.086 34.5736L657.604 35.8755C659.359 33.8293 661.039 31.8197 662.632 29.8757L661.086 28.608L659.539 27.3402C657.963 29.263 656.301 31.2497 654.568 33.2716L656.086 34.5736ZM665.951 22.5433L667.524 23.7787C669.283 21.5396 670.879 19.4561 672.287 17.587L670.689 16.3839L669.091 15.1808C667.699 17.0301 666.119 19.0919 664.378 21.3078L665.951 22.5433ZM675.299 10.1203L676.924 11.2865C677.641 10.2875 678.196 9.50086 678.572 8.96262C678.761 8.69349 678.904 8.48644 679.001 8.34599C679.05 8.27577 679.087 8.22219 679.112 8.18582C679.124 8.16763 679.134 8.15375 679.14 8.14424C679.144 8.13948 679.146 8.13582 679.148 8.13326C679.149 8.13198 679.149 8.13098 679.15 8.13025C679.15 8.12989 679.15 8.12959 679.151 8.12937C679.151 8.12925 679.151 8.12916 679.151 8.12908C679.151 8.12904 679.151 8.12899 679.151 8.12898C679.151 8.12893 679.151 8.1289 677.5 6.99996C675.849 5.87102 675.849 5.87099 675.849 5.87097C675.849 5.87097 675.849 5.87095 675.849 5.87094C675.849 5.87093 675.849 5.87094 675.849 5.87097C675.849 5.87102 675.849 5.87114 675.849 5.87133C675.849 5.87171 675.848 5.87237 675.848 5.8733C675.846 5.87516 675.844 5.87812 675.841 5.88217C675.836 5.89027 675.827 5.90274 675.816 5.9195C675.793 5.95302 675.758 6.0037 675.711 6.071C675.618 6.2056 675.479 6.40661 675.295 6.66955C674.927 7.19545 674.381 7.96895 673.674 8.95408L675.299 10.1203Z" fill="white"/>
</svg>
