<svg width="1384" height="98" viewBox="0 0 1384 98" fill="none" xmlns="http://www.w3.org/2000/svg">
<rect width="1384" height="98" fill="url(#paint0_linear_116_2428)"/>
<circle opacity="0.8" cx="637.618" cy="48.6176" r="48.6176" fill="#E76F51"/>
<circle opacity="0.8" cx="711.382" cy="48.6176" r="48.6176" fill="#264653"/>
<path opacity="0.8" d="M674.5 16.9424C681.814 25.4507 686.235 36.5173 686.235 48.6172C686.235 60.717 681.814 71.7836 674.5 80.292C667.186 71.7836 662.765 60.717 662.765 48.6172C662.765 36.5173 667.186 25.4507 674.5 16.9424Z" fill="#7E5952" fill-opacity="0.572549"/>
<path d="M222.283 33.972H239.563V37.32H232.579V60H229.087V37.32H222.283V33.972ZM267.501 33.972V60H264.045V48.588H250.401V60H246.909V33.972H250.401V45.276H264.045V33.972H267.501ZM276.799 33.972H293.719V37.32H280.291V45.24H292.279V48.588H280.291V56.652H294.223V60H276.799V33.972ZM322.222 33.972C324.118 33.972 325.738 34.296 327.082 34.944C328.426 35.568 329.458 36.48 330.178 37.68C330.922 38.88 331.294 40.332 331.294 42.036C331.294 43.068 331.138 44.088 330.826 45.096C330.514 46.08 330.01 46.98 329.314 47.796C328.642 48.588 327.754 49.224 326.65 49.704C325.546 50.184 324.202 50.424 322.618 50.424H318.766V60H315.274V33.972H322.222ZM322.582 47.076C323.614 47.076 324.466 46.908 325.138 46.572C325.81 46.236 326.338 45.816 326.722 45.312C327.106 44.784 327.382 44.232 327.55 43.656C327.718 43.08 327.802 42.564 327.802 42.108C327.802 41.58 327.718 41.04 327.55 40.488C327.382 39.912 327.094 39.396 326.686 38.94C326.302 38.46 325.786 38.076 325.138 37.788C324.514 37.476 323.734 37.32 322.798 37.32H318.766V47.076H322.582ZM338.484 33.972H355.404V37.32H341.976V45.24H353.964V48.588H341.976V56.652H355.908V60H338.484V33.972ZM370.681 33.972C372.001 33.972 373.213 34.152 374.317 34.512C375.445 34.848 376.417 35.364 377.233 36.06C378.073 36.732 378.721 37.572 379.177 38.58C379.657 39.564 379.897 40.716 379.897 42.036C379.897 43.068 379.741 44.076 379.429 45.06C379.141 46.044 378.649 46.944 377.953 47.76C377.257 48.552 376.345 49.2 375.217 49.704C374.113 50.184 372.745 50.424 371.113 50.424H367.261V60H363.769V33.972H370.681ZM371.041 47.076C372.073 47.076 372.925 46.92 373.597 46.608C374.293 46.296 374.833 45.9 375.217 45.42C375.601 44.916 375.877 44.376 376.045 43.8C376.213 43.224 376.297 42.684 376.297 42.18C376.297 41.652 376.201 41.112 376.009 40.56C375.841 39.984 375.553 39.456 375.145 38.976C374.761 38.496 374.245 38.1 373.597 37.788C372.973 37.476 372.205 37.32 371.293 37.32H367.261V47.076H371.041ZM375.325 49.056L382.129 60H378.097L371.185 49.164L375.325 49.056ZM389.299 33.972H404.743V37.32H392.791V45.636H403.267V48.948H392.791V60H389.299V33.972ZM412.298 33.972H429.218V37.32H415.79V45.24H427.778V48.588H415.79V56.652H429.722V60H412.298V33.972ZM456.699 58.056C456.267 58.344 455.679 58.668 454.935 59.028C454.191 59.388 453.315 59.688 452.307 59.928C451.323 60.168 450.243 60.288 449.067 60.288C447.051 60.264 445.227 59.904 443.595 59.208C441.987 58.512 440.619 57.564 439.491 56.364C438.363 55.164 437.487 53.784 436.863 52.224C436.263 50.64 435.963 48.96 435.963 47.184C435.963 45.24 436.275 43.452 436.899 41.82C437.547 40.164 438.447 38.736 439.599 37.536C440.751 36.312 442.107 35.364 443.667 34.692C445.251 34.02 446.979 33.684 448.851 33.684C450.411 33.684 451.827 33.9 453.099 34.332C454.371 34.74 455.463 35.232 456.375 35.808L454.971 39.048C454.251 38.568 453.375 38.112 452.343 37.68C451.335 37.248 450.207 37.032 448.959 37.032C447.687 37.032 446.487 37.284 445.359 37.788C444.231 38.292 443.235 39 442.371 39.912C441.507 40.824 440.823 41.892 440.319 43.116C439.839 44.316 439.599 45.612 439.599 47.004C439.599 48.42 439.815 49.74 440.247 50.964C440.703 52.164 441.339 53.208 442.155 54.096C442.995 54.984 444.003 55.68 445.179 56.184C446.355 56.688 447.675 56.94 449.139 56.94C450.459 56.94 451.635 56.736 452.667 56.328C453.699 55.92 454.551 55.464 455.223 54.96L456.699 58.056ZM462.471 33.972H479.751V37.32H472.767V60H469.275V37.32H462.471V33.972Z" fill="white"/>
<path d="M911.188 60V33.144H911.224L924.868 52.512L923.392 52.224L937 33.144H937.072V60H933.616V41.064L933.832 42.828L924.004 56.724H923.932L913.96 42.828L914.572 41.208V60H911.188ZM943.759 60L955.135 32.892H955.351L966.691 60H962.695L954.199 38.364L956.683 36.744L947.179 60H943.759ZM950.419 50.136H960.103L961.255 53.16H949.411L950.419 50.136ZM969.447 33.972H986.727V37.32H979.743V60H976.251V37.32H969.447V33.972ZM1012.1 58.056C1011.67 58.344 1011.08 58.668 1010.33 59.028C1009.59 59.388 1008.71 59.688 1007.71 59.928C1006.72 60.168 1005.64 60.288 1004.47 60.288C1002.45 60.264 1000.63 59.904 998.995 59.208C997.387 58.512 996.019 57.564 994.891 56.364C993.763 55.164 992.887 53.784 992.263 52.224C991.663 50.64 991.363 48.96 991.363 47.184C991.363 45.24 991.675 43.452 992.299 41.82C992.947 40.164 993.847 38.736 994.999 37.536C996.151 36.312 997.507 35.364 999.067 34.692C1000.65 34.02 1002.38 33.684 1004.25 33.684C1005.81 33.684 1007.23 33.9 1008.5 34.332C1009.77 34.74 1010.86 35.232 1011.77 35.808L1010.37 39.048C1009.65 38.568 1008.77 38.112 1007.74 37.68C1006.73 37.248 1005.61 37.032 1004.36 37.032C1003.09 37.032 1001.89 37.284 1000.76 37.788C999.631 38.292 998.635 39 997.771 39.912C996.907 40.824 996.223 41.892 995.719 43.116C995.239 44.316 994.999 45.612 994.999 47.004C994.999 48.42 995.215 49.74 995.647 50.964C996.103 52.164 996.739 53.208 997.555 54.096C998.395 54.984 999.403 55.68 1000.58 56.184C1001.75 56.688 1003.07 56.94 1004.54 56.94C1005.86 56.94 1007.03 56.736 1008.07 56.328C1009.1 55.92 1009.95 55.464 1010.62 54.96L1012.1 58.056ZM1040.37 33.972V60H1036.91V48.588H1023.27V60H1019.78V33.972H1023.27V45.276H1036.91V33.972H1040.37ZM1062.86 33.972H1078.3V37.32H1066.35V45.636H1076.83V48.948H1066.35V60H1062.86V33.972ZM1083.71 47.004C1083.71 45.204 1084.05 43.512 1084.72 41.928C1085.42 40.32 1086.38 38.904 1087.6 37.68C1088.82 36.432 1090.23 35.46 1091.81 34.764C1093.42 34.044 1095.15 33.684 1097 33.684C1098.82 33.684 1100.52 34.044 1102.11 34.764C1103.72 35.46 1105.13 36.432 1106.36 37.68C1107.6 38.904 1108.58 40.32 1109.27 41.928C1109.97 43.512 1110.32 45.204 1110.32 47.004C1110.32 48.852 1109.97 50.58 1109.27 52.188C1108.58 53.796 1107.6 55.212 1106.36 56.436C1105.13 57.636 1103.72 58.584 1102.11 59.28C1100.52 59.952 1098.82 60.288 1097 60.288C1095.15 60.288 1093.42 59.952 1091.81 59.28C1090.23 58.608 1088.82 57.672 1087.6 56.472C1086.38 55.272 1085.42 53.868 1084.72 52.26C1084.05 50.652 1083.71 48.9 1083.71 47.004ZM1087.31 47.04C1087.31 48.408 1087.56 49.692 1088.07 50.892C1088.57 52.068 1089.27 53.112 1090.16 54.024C1091.04 54.936 1092.08 55.656 1093.25 56.184C1094.43 56.688 1095.7 56.94 1097.07 56.94C1098.41 56.94 1099.67 56.688 1100.85 56.184C1102.02 55.656 1103.04 54.936 1103.91 54.024C1104.77 53.112 1105.46 52.068 1105.96 50.892C1106.46 49.692 1106.72 48.396 1106.72 47.004C1106.72 45.636 1106.46 44.352 1105.96 43.152C1105.46 41.928 1104.76 40.86 1103.87 39.948C1102.98 39.036 1101.95 38.328 1100.78 37.824C1099.6 37.296 1098.34 37.032 1097 37.032C1095.63 37.032 1094.36 37.296 1093.18 37.824C1092 38.352 1090.97 39.072 1090.08 39.984C1089.2 40.896 1088.51 41.964 1088.03 43.188C1087.55 44.388 1087.31 45.672 1087.31 47.04ZM1124.91 33.972C1126.23 33.972 1127.44 34.152 1128.55 34.512C1129.67 34.848 1130.65 35.364 1131.46 36.06C1132.3 36.732 1132.95 37.572 1133.41 38.58C1133.89 39.564 1134.13 40.716 1134.13 42.036C1134.13 43.068 1133.97 44.076 1133.66 45.06C1133.37 46.044 1132.88 46.944 1132.18 47.76C1131.49 48.552 1130.57 49.2 1129.45 49.704C1128.34 50.184 1126.97 50.424 1125.34 50.424H1121.49V60H1118V33.972H1124.91ZM1125.27 47.076C1126.3 47.076 1127.15 46.92 1127.83 46.608C1128.52 46.296 1129.06 45.9 1129.45 45.42C1129.83 44.916 1130.11 44.376 1130.27 43.8C1130.44 43.224 1130.53 42.684 1130.53 42.18C1130.53 41.652 1130.43 41.112 1130.24 40.56C1130.07 39.984 1129.78 39.456 1129.37 38.976C1128.99 38.496 1128.47 38.1 1127.83 37.788C1127.2 37.476 1126.43 37.32 1125.52 37.32H1121.49V47.076H1125.27ZM1129.55 49.056L1136.36 60H1132.33L1125.41 49.164L1129.55 49.056ZM1163.63 51.324L1153.98 33.972H1158.27L1166.01 48.336L1164.93 48.408L1172.6 33.972H1176.84L1167.12 51.324V60H1163.63V51.324ZM1179.68 47.004C1179.68 45.204 1180.02 43.512 1180.69 41.928C1181.38 40.32 1182.34 38.904 1183.57 37.68C1184.79 36.432 1186.2 35.46 1187.78 34.764C1189.39 34.044 1191.12 33.684 1192.96 33.684C1194.79 33.684 1196.49 34.044 1198.08 34.764C1199.68 35.46 1201.1 36.432 1202.32 37.68C1203.57 38.904 1204.54 40.32 1205.24 41.928C1205.94 43.512 1206.28 45.204 1206.28 47.004C1206.28 48.852 1205.94 50.58 1205.24 52.188C1204.54 53.796 1203.57 55.212 1202.32 56.436C1201.1 57.636 1199.68 58.584 1198.08 59.28C1196.49 59.952 1194.79 60.288 1192.96 60.288C1191.12 60.288 1189.39 59.952 1187.78 59.28C1186.2 58.608 1184.79 57.672 1183.57 56.472C1182.34 55.272 1181.38 53.868 1180.69 52.26C1180.02 50.652 1179.68 48.9 1179.68 47.004ZM1183.28 47.04C1183.28 48.408 1183.53 49.692 1184.04 50.892C1184.54 52.068 1185.24 53.112 1186.12 54.024C1187.01 54.936 1188.04 55.656 1189.22 56.184C1190.4 56.688 1191.67 56.94 1193.04 56.94C1194.38 56.94 1195.64 56.688 1196.82 56.184C1197.99 55.656 1199.01 54.936 1199.88 54.024C1200.74 53.112 1201.42 52.068 1201.93 50.892C1202.43 49.692 1202.68 48.396 1202.68 47.004C1202.68 45.636 1202.43 44.352 1201.93 43.152C1201.42 41.928 1200.73 40.86 1199.84 39.948C1198.95 39.036 1197.92 38.328 1196.74 37.824C1195.57 37.296 1194.31 37.032 1192.96 37.032C1191.6 37.032 1190.32 37.296 1189.15 37.824C1187.97 38.352 1186.94 39.072 1186.05 39.984C1185.16 40.896 1184.48 41.964 1184 43.188C1183.52 44.388 1183.28 45.672 1183.28 47.04ZM1217.1 50.784C1217.1 51.96 1217.38 53.016 1217.93 53.952C1218.5 54.864 1219.26 55.584 1220.2 56.112C1221.13 56.64 1222.19 56.904 1223.36 56.904C1224.59 56.904 1225.68 56.64 1226.64 56.112C1227.6 55.584 1228.36 54.864 1228.91 53.952C1229.46 53.016 1229.74 51.96 1229.74 50.784V33.972H1233.16V50.892C1233.16 52.788 1232.71 54.444 1231.82 55.86C1230.96 57.276 1229.78 58.368 1228.3 59.136C1226.83 59.904 1225.19 60.288 1223.36 60.288C1221.54 60.288 1219.9 59.904 1218.43 59.136C1216.97 58.368 1215.8 57.276 1214.94 55.86C1214.08 54.444 1213.64 52.788 1213.64 50.892V33.972H1217.1V50.784Z" fill="white"/>
<defs>
<linearGradient id="paint0_linear_116_2428" x1="0" y1="49" x2="1384" y2="49" gradientUnits="userSpaceOnUse">
<stop offset="0.1" stop-color="#264653"/>
<stop offset="0.55" stop-color="#C2824E"/>
<stop offset="1" stop-color="#E76F51"/>
</linearGradient>
</defs>
</svg>
